<svg width="300" height="214" viewBox="0 0 300 214" fill="none" xmlns="http://www.w3.org/2000/svg">
<path d="M299.085 94.4738C299.085 107.665 288.992 118.357 276.541 118.357C264.089 118.357 253.995 107.665 253.995 94.4738C253.995 81.2829 264.089 70.5901 276.541 70.5901C288.992 70.5901 299.085 81.2829 299.085 94.4738Z" fill="#FDD089"/>
<path d="M282.431 134.682C282.431 174.16 248.9 206.164 207.536 206.164C166.172 206.164 132.64 174.16 132.64 134.682C132.64 95.2047 166.172 63.202 207.536 63.202C248.9 63.202 282.431 95.2047 282.431 134.682Z" fill="#FDD089"/>
<path d="M218.865 201.857C218.865 201.857 243.328 189.795 247.536 183.505C251.743 177.213 245.559 176.857 245.559 176.857C245.559 176.857 256.476 166.24 254.939 161.77C253.404 157.3 247.671 161.57 247.671 161.57C247.671 161.57 254.767 145.773 251.458 144.202C245.292 141.277 236.644 158.088 236.644 158.088C236.644 158.088 238.504 150.785 234.258 151.023C227.856 151.38 228.121 167.902 228.121 167.902C228.121 167.902 227.397 161.567 223.538 163.625C216.615 167.316 218.865 201.857 218.865 201.857Z" fill="#355389"/>
<path d="M222.939 161.094C227.127 159.834 228.098 164.471 228.098 164.471C228.098 164.471 227.856 151.38 234.258 151.023C238.504 150.785 236.645 158.088 236.645 158.088C236.645 158.088 245.293 141.277 251.458 144.202L218.837 201.589C218.606 197.582 216.915 162.905 222.939 161.094Z" fill="#466EB6"/>
<path d="M219.497 202.007C219.497 202.007 239.505 204.492 244.685 202.277C249.866 200.063 246.154 197.328 246.154 197.328C246.154 197.328 257.277 195.141 258.135 191.729C258.994 188.317 253.683 188.652 253.683 188.652C253.683 188.652 264.528 181.682 263.102 179.358C260.446 175.027 248.219 182 248.219 182C248.219 182 252.348 178.199 249.602 176.623C245.464 174.244 238.916 184.657 238.916 184.657C238.916 184.657 239.322 182.09 236.079 181.806C230.26 181.295 219.497 202.007 219.497 202.007Z" fill="#355389"/>
<path d="M235.794 181.126C239.038 181.41 238.916 184.657 238.916 184.657C238.916 184.657 245.464 174.244 249.602 176.623C252.348 178.199 248.219 182.001 248.219 182.001C248.219 182.001 260.446 175.027 263.102 179.358L219.437 201.897C220.921 199.303 230.36 180.648 235.794 181.126Z" fill="#13375B"/>
<path d="M257.914 203.139C257.914 202.675 257.667 202.299 257.362 202.299H5.33243C4.95599 202.299 4.65125 202.675 4.65125 203.139C4.65125 203.602 4.95599 203.979 5.33243 203.979H257.362C257.667 203.979 257.914 203.602 257.914 203.139Z" fill="#184655"/>
<path d="M58.7474 201.911C58.7474 201.911 26.8586 186.187 21.3733 177.988C15.8893 169.786 23.9521 169.322 23.9521 169.322C23.9521 169.322 9.72027 155.482 11.7228 149.655C13.7254 143.829 21.1966 149.396 21.1966 149.396C21.1966 149.396 11.9469 128.803 16.2606 126.756C24.2978 122.941 35.5706 144.857 35.5706 144.857C35.5706 144.857 33.148 135.337 38.682 135.647C47.0278 136.113 46.6821 157.649 46.6821 157.649C46.6821 157.649 47.6257 149.392 52.6552 152.073C61.6809 156.886 58.7474 201.911 58.7474 201.911Z" fill="#355389"/>
<path d="M54.3619 149.817C49.9624 147.217 46.6052 153.336 46.6052 153.336C46.6052 153.336 47.0277 136.113 38.6819 135.647C33.148 135.337 35.5705 144.857 35.5705 144.857C35.5705 144.857 24.2977 122.941 16.2606 126.756L58.7832 201.561C59.0841 196.337 60.2083 153.272 54.3619 149.817Z" fill="#466EB6"/>
<path d="M57.9229 202.107C57.9229 202.107 31.8421 205.346 25.0892 202.459C18.3363 199.572 23.1762 196.007 23.1762 196.007C23.1762 196.007 8.67552 193.157 7.55644 188.709C6.43863 184.262 13.3606 184.698 13.3606 184.698C13.3606 184.698 -0.776519 175.613 1.08264 172.582C4.54489 166.938 20.4822 176.026 20.4822 176.026C20.4822 176.026 15.1019 171.072 18.6794 169.016C24.0751 165.916 32.6103 179.49 32.6103 179.49C32.6103 179.49 32.0802 176.144 36.3082 175.773C43.8921 175.108 57.9229 202.107 57.9229 202.107Z" fill="#355389"/>
<path d="M36.2891 173.515C32.0624 173.887 32.6105 179.49 32.6105 179.49C32.6105 179.49 25.0534 165.012 18.6565 168.811C15.1084 170.917 20.0291 175.834 20.0291 175.834C20.0291 175.834 4.54501 166.938 1.08276 172.582L58.0024 201.962C56.0677 198.582 43.3736 172.894 36.2891 173.515Z" fill="#13375B"/>
<path d="M199.915 177.545H61.9831C56.7155 177.545 52.444 173.826 52.444 169.239V164.299C52.444 159.711 56.7155 155.993 61.9831 155.993H199.915C193.605 161.998 193.496 171.176 199.661 177.294L199.915 177.545Z" fill="#50BFA5"/>
<path d="M197.983 158.463H128.572C123.793 158.463 119.918 162.181 119.918 166.769C119.918 171.356 123.793 175.075 128.572 175.075H197.988C194.744 169.98 194.751 163.544 197.983 158.463Z" fill="#FAE0B2"/>
<path d="M230.137 176.409H56.3785C50.9816 176.409 46.6077 180.525 46.6077 185.603V193.336C46.6077 198.414 50.9816 202.531 56.3785 202.531H230.137L230.047 202.441C222.614 195.16 222.653 183.644 230.137 176.409Z" fill="#B75742"/>
<path d="M227.062 180.276H134.173C128.777 180.276 124.403 184.392 124.403 189.47C124.403 194.547 128.777 198.664 134.173 198.664H227.061C223.646 192.971 223.651 185.964 227.062 180.276Z" fill="#FAE0B2"/>
<path d="M173.502 189.518H166.413C164.889 189.518 163.653 190.753 163.653 192.278V192.525H173.502V189.518Z" fill="#13375B"/>
<path d="M166.703 189.528C168.397 189.527 170.927 190.961 172.355 192.73L189.168 213.583L199.044 213.577L183.053 193.746C181.172 191.412 177.835 189.522 175.602 189.523L166.703 189.528Z" fill="#355389"/>
<path d="M55.1073 46.8075C55.06 46.9535 54.9358 47.0584 54.7847 47.0815C54.6336 47.1033 54.4825 47.038 54.3954 46.9125L52.736 44.5117L49.8167 44.5181C49.6643 44.5181 49.5247 44.4323 49.4569 44.2953C49.389 44.1583 49.4044 43.9957 49.4966 43.8741L51.2674 41.5527L50.3596 38.7793C50.3109 38.6333 50.3506 38.4745 50.4594 38.3683C50.5683 38.2607 50.7283 38.2249 50.873 38.2761L53.6272 39.2428L55.9844 37.5206C56.1086 37.431 56.2725 37.4195 56.407 37.4899C56.5427 37.5603 56.6259 37.7025 56.6221 37.8548L56.5542 40.7729L58.9191 42.4835C59.0433 42.5732 59.1061 42.7242 59.0805 42.8753C59.0549 43.0251 58.946 43.1481 58.8001 43.1929L56.0036 44.029L55.1073 46.8075Z" fill="#F47458"/>
<path d="M158.283 15.1057C158.639 13.8266 159.788 13.1569 161.044 13.5052C162.347 13.8676 162.939 15.0199 162.607 16.3067C162.259 17.5628 161.127 18.2632 159.822 17.9009C158.543 17.5462 157.935 16.3631 158.283 15.1057ZM159.836 11.9469C160.032 11.445 159.964 9.64603 162.465 7.91619C163.492 7.21196 164.334 6.614 164.562 5.79197C164.957 4.37583 163.465 3.69592 161.98 3.70232C161.211 3.70616 160.583 3.09029 160.558 2.32204C160.534 1.54227 161.14 0.887978 161.919 0.849566C162.771 0.808592 163.775 0.890533 164.827 1.18375C168.016 2.06852 168.976 4.23371 168.419 6.23884C167.909 8.07496 166.439 8.96739 165.24 9.72668C163.22 11.0097 163.222 12.4386 163.049 12.8394L159.836 11.9469Z" fill="#F7CC7F"/>
<path d="M240.412 44.5117L241.597 46.4823C241.727 46.6961 242.044 46.6692 242.135 46.4374L242.978 44.2979L245.218 43.778C245.46 43.7217 245.533 43.4118 245.341 43.253L243.567 41.7908L243.765 39.5001C243.787 39.2517 243.514 39.0866 243.304 39.2197L241.364 40.4566L239.246 39.559C239.017 39.4617 238.777 39.6704 238.838 39.9112L239.414 42.1378L237.907 43.8753C237.745 44.0636 237.867 44.3568 238.116 44.3721L240.412 44.5117Z" fill="#F79C8D"/>
<path d="M186.433 15.1749L183.838 13.3324L184.557 10.157L185.402 10.3477L184.809 12.9611L187.492 14.8663L186.11 18.2774L189.137 19.9112L187.761 22.9214L186.725 23.1033L188.013 20.2876L185.017 18.6705L186.433 15.1749Z" fill="#F48C7F"/>
<path d="M66.9191 28.4246L68.5261 29.8394L70.5248 28.9636L72.2124 30.6755L74.0536 29.0865L76.0485 30.9393L77.9243 29.6845L80.1356 31.1531L79.5799 31.9905L77.9269 30.8919L75.9474 32.2159L74.0293 30.4348L72.1573 32.0507L70.2943 30.1608L68.3417 31.0161L66.8538 29.705L65.6887 30.5347L65.1061 29.7165L66.9191 28.4246Z" fill="#F7CC7F"/>
<path d="M248.258 58.4236C250.476 60.5516 250.55 64.0741 248.422 66.2917C246.295 68.5094 242.773 68.5824 240.555 66.4556C238.337 64.3289 238.264 60.8064 240.391 58.5875C242.518 56.3698 246.04 56.2968 248.258 58.4236Z" fill="#FFF3D9"/>
<path d="M248.137 63.0752L245.769 63.8037L245.026 66.1661C244.966 66.3569 244.714 66.3966 244.599 66.2327L243.175 64.2058L240.699 64.2301C240.498 64.2314 240.382 64.0035 240.503 63.8434L241.991 61.8626L241.203 59.5143C241.139 59.3248 241.321 59.1443 241.509 59.2096L243.852 60.0124L245.842 58.5374C246.003 58.4183 246.231 58.5348 246.227 58.7346L246.189 61.2122L248.206 62.6488C248.37 62.764 248.329 63.0163 248.137 63.0752Z" fill="#FED333"/>
<path d="M84.6389 11.4119C81.5211 13.1789 82.1357 17.8985 85.612 18.8332C86.2369 19.0009 86.7734 19.4017 87.1357 19.9369L88.3841 21.7782C88.7273 22.2865 89.4033 22.4453 89.9372 22.1431L91.1191 21.4734C91.6517 21.1712 91.8643 20.5093 91.6056 19.9536C90.662 17.9254 90.1665 17.2455 90.5032 16.0624C91.4904 12.6014 87.7593 9.64495 84.6389 11.4119Z" fill="#F7CC7F"/>
<path d="M87.6056 13.6463C87.589 13.9215 87.7401 14.2122 87.8925 14.5528C88.1076 14.298 88.3521 13.9894 88.3508 13.668C88.3495 13.4427 88.1652 13.1917 87.9437 13.2135C87.9193 13.216 87.6172 13.4516 87.6056 13.6463ZM85 16.0624C85.2369 16.1828 85.5493 16.1584 85.9564 15.9868C85.7721 15.709 85.5659 15.4734 85.2842 15.3556C84.6504 15.0906 84.6043 15.8601 85 16.0624ZM88.2343 20.1456C87.3598 18.4324 86.3598 16.6514 86.0602 16.1533C84.1959 16.9574 84.1818 14.6859 85.3585 15.1789C85.6953 15.3185 85.9296 15.5899 86.1344 15.9075C86.7452 15.6181 87.2971 15.2109 87.7529 14.7128C87.5595 14.2813 87.3931 13.9625 87.4123 13.6347C87.4417 13.1379 87.9411 12.8229 88.3137 13.1584C88.4546 13.2839 88.5429 13.4785 88.5429 13.6667C88.5454 14.0675 88.2471 14.4414 87.9795 14.7474C88.6043 16.1367 89.2702 17.5208 89.9655 18.8716L89.7939 18.96C89.1101 17.6322 88.4533 16.2698 87.8387 14.9036C87.3816 15.3863 86.8374 15.7846 86.2369 16.0726C86.6184 16.7103 87.5851 18.4491 88.4059 20.0586L88.2343 20.1456Z" fill="white"/>
<path d="M87.1022 19.8921C87.1137 19.9075 87.1252 19.9216 87.1355 19.9369L88.3839 21.7782C88.727 22.2865 89.4031 22.4453 89.937 22.1431L91.1189 21.4734C91.6515 21.1712 91.8641 20.5093 91.6054 19.9536C91.1854 19.0522 90.8551 18.4158 90.6464 17.8844L87.1022 19.8921Z" fill="#96D9C9"/>
<path d="M81.622 10.8037L79.9626 9.35554C79.8026 9.21597 79.7859 8.97269 79.9268 8.81136C80.0663 8.65131 80.3096 8.63468 80.4709 8.77425L82.1291 10.2224C82.2891 10.362 82.3058 10.6052 82.1662 10.7666C82.0254 10.9279 81.7821 10.9433 81.622 10.8037Z" fill="#FAE0B2"/>
<path d="M81.064 15.9841L78.8296 16.5911C78.6248 16.6461 78.4122 16.5245 78.3572 16.3196C78.3008 16.1135 78.4225 15.9022 78.6286 15.8458L80.8617 15.2402C81.0665 15.1839 81.2791 15.3055 81.3354 15.5104C81.3905 15.7165 81.2701 15.9278 81.064 15.9841Z" fill="#FAE0B2"/>
<path d="M81.357 23.4069C81.1637 23.3172 81.0804 23.0867 81.1713 22.8947C81.5107 22.1725 81.9204 21.4811 82.389 20.8371C82.5145 20.6642 82.7552 20.6271 82.9281 20.7526C83.0996 20.878 83.1381 21.1188 83.0126 21.2916C82.5721 21.896 82.188 22.5451 81.8692 23.2225C81.7795 23.4145 81.5503 23.499 81.357 23.4069Z" fill="#FAE0B2"/>
<path d="M86.9318 8.73937C86.7205 8.75858 86.5323 8.60237 86.5131 8.39111C86.4209 7.38342 86.2237 6.38213 85.9254 5.41541C85.8639 5.21183 85.9766 4.99545 86.1815 4.93271C86.385 4.86997 86.6002 4.9839 86.6629 5.18749C86.9766 6.20542 87.184 7.2605 87.2813 8.32068C87.3005 8.53323 87.1431 8.72016 86.9318 8.73937Z" fill="#FAE0B2"/>
<path d="M90.1841 10.7023C90.0561 10.532 90.0894 10.29 90.2597 10.162L92.261 8.65748C92.4313 8.52944 92.672 8.56274 92.8 8.73303C92.928 8.90333 92.8948 9.14534 92.7245 9.27338L90.7245 10.7791C90.5542 10.9059 90.3122 10.8726 90.1841 10.7023Z" fill="#FAE0B2"/>
<path d="M96.0792 15.33C96.0472 15.3416 96.0126 15.3492 95.9768 15.3531C95.1163 15.4196 94.2469 15.3953 93.3916 15.2775C93.1803 15.2493 93.0331 15.0547 93.0625 14.8435C93.0907 14.6322 93.2853 14.4849 93.4966 14.5131C94.2969 14.6232 95.1112 14.6463 95.9166 14.5835C96.1291 14.5669 96.3148 14.7257 96.3314 14.9382C96.3442 15.1136 96.238 15.2724 96.0792 15.33Z" fill="#FAE0B2"/>
<path d="M213.605 14.3492L212.616 16.1764C210.278 20.4978 207.122 24.4248 203.308 27.7603L202.889 28.1265C202.889 28.1265 203.697 31.8128 207.406 31.1662C210.282 26.7744 213.598 22.8525 217.528 19.2302L218.979 18.0484L213.605 14.3492Z" fill="#466EB6"/>
<path d="M218.983 18.0431C218.762 18.3082 217.386 17.6936 215.907 16.6718C214.428 15.65 213.394 14.6039 213.613 14.3402C213.833 14.0751 215.223 14.691 216.702 15.714C218.181 16.7358 219.202 17.7794 218.983 18.0431Z" fill="#86B1F2"/>
<path d="M218.973 18.0519L218.977 18.0455C218.977 18.0455 215.57 16.1415 214.95 15.1031L214.544 15.6166C214.92 15.9482 215.386 16.3118 215.907 16.6716C217.369 17.6819 218.73 18.2939 218.973 18.0519Z" fill="#355389"/>
<path d="M212.806 24.0586C212.372 24.2045 210.441 24.6603 208.734 22.0637C208.515 22.3415 208.291 22.6168 208.063 22.8908C209.232 24.5054 210.513 24.9881 211.404 25.1034C211.546 25.1213 211.733 25.1379 211.875 25.1431C212.181 24.7781 212.491 24.4171 212.806 24.0586Z" fill="#B75742"/>
<path d="M209.373 22.139L208.182 17.8893L207.578 19.1838L206.202 18.9713L208.596 22.5833L209.373 22.139Z" fill="#B75742"/>
<path d="M208.426 22.8678L205.093 22.2981L205.87 23.2046L205.094 23.9011L208.319 23.6335L208.426 22.8678Z" fill="#B75742"/>
<path d="M207.837 23.6859C207.541 22.9675 207.963 22.1237 208.779 21.8011C209.596 21.4784 210.497 21.7985 210.792 22.5168C211.088 23.2351 210.665 24.0789 209.849 24.4029C209.033 24.7256 208.131 24.4054 207.837 23.6859Z" fill="#F47458"/>
<path d="M209.911 72.9051C206.802 71.2278 203.052 71.9051 200.925 74.6708C199.047 74.0997 196.934 74.3277 195.258 75.2982C191.953 77.2124 189.93 82.5633 192.616 85.4647C193.273 88.4519 193.781 91.5339 196.755 91.5672C198.514 94.7913 204.671 95.0038 207.829 91.9744C210.589 92.8425 213.537 91.2599 215.451 89.0653C215.902 88.5467 216.283 87.7323 216.455 87.6235C216.458 87.6222 223.57 86.3047 222.915 79.4135C222.228 72.2009 214.725 67.2354 209.911 72.9051Z" fill="#F47458"/>
<path d="M182.853 159.201C183.021 162.322 183.612 165.126 183.699 165.459C183.741 165.617 184.252 166.25 184.3 166.414C183.535 170.09 180.998 171.998 178.677 173.29C179.368 171.477 180.658 169.461 180.578 169.027C180.447 168.336 179.994 165.196 178.707 161.154C180.505 161.179 181.273 160.139 182.853 159.201Z" fill="#F7A491"/>
<path d="M191.471 114.364L202.544 123.303C202.544 123.303 196.978 128.805 194.891 130.851C192.803 132.896 182.297 140.269 182.113 140.74C182.076 140.835 182.631 141.957 182.804 143.353C183.27 147.132 183.872 157.758 184.037 164.06C182.848 165.309 180.779 166.168 179.24 166.562C175.439 158.823 173.471 140.126 173.485 138.339C173.51 135.432 191.471 114.364 191.471 114.364Z" fill="#B75742"/>
<path d="M223.759 133.802C223.324 134.08 219.925 138.329 218.47 140.69C217.344 139.515 216.771 138.297 215.428 137.369C216.966 135.89 220.139 132.204 220.541 131.245C221.497 128.967 222.09 128.738 222.09 128.738C222.09 128.738 229.144 133.237 229.49 134.114C229.834 134.99 225.501 132.683 223.759 133.802Z" fill="#F7A491"/>
<path d="M220.337 131.752C219.744 131.614 220.994 128.966 221.269 128.354C221.579 127.663 222.029 127.542 222.134 127.539C222.419 127.533 230.259 132.533 231.46 133.949C231.541 134.045 231.666 134.317 231.682 134.375C232.136 136.091 225.075 134.735 224.212 133.829C223.445 133.022 223.004 132.372 220.337 131.752Z" fill="#184655"/>
<path d="M189.068 116.957L198.833 112.93C198.793 112.946 198.888 113.343 198.895 113.374C199.778 117.095 201.776 115.38 203.732 121.845C205.113 126.413 204.612 142.825 204.612 142.825C204.612 142.825 213.067 137.61 217.844 134.06C218.28 133.737 220.946 137.991 220.946 137.991C214.451 148.907 201.093 154.105 199.816 153.603C195.463 151.89 191.738 122.336 191.749 122.338C190.908 120.588 189.068 116.957 189.068 116.957Z" fill="#B75742"/>
<path d="M204.862 92.3186C204.862 92.3186 216.833 89.9063 219.496 89.5325C222.16 89.1586 231.452 86.1662 231.81 86.0382C232.167 85.9102 233.611 81.0561 234.121 81.4249C234.63 81.7949 233.257 83.8653 233.899 84.1739C234.541 84.4838 240.149 82.1803 240.176 82.6477C240.223 83.5235 236.797 84.1944 236.893 84.6003C236.99 85.0062 240.401 83.558 240.797 84.1791C241.193 84.7988 237.438 85.2367 237.362 85.5709C237.285 85.9063 240.953 85.6477 240.736 86.3596C240.616 86.745 237.465 86.5068 237.586 86.9691C237.706 87.4313 240.095 87.9985 239.917 88.4287C239.738 88.859 237.972 87.6771 236.723 87.9435C235.472 88.2098 234.424 87.7348 232.566 88.7591C230.709 89.7834 224.584 94.1906 220.294 94.9499C216.003 95.7105 206.528 97.4173 206.528 97.4173L204.862 92.3186Z" fill="#F7A491"/>
<path d="M182.916 69.9561C182.173 67.4362 181.573 65.2467 181.53 65.0726C181.442 64.7038 184.707 60.8331 184.119 60.6091C183.532 60.3863 182.553 62.6705 181.943 62.3031C181.332 61.9356 180.182 55.9829 179.777 56.2172C179.018 56.6577 180.337 59.8908 179.944 60.0329C179.552 60.175 178.891 56.5271 178.155 56.5373C177.42 56.5463 179.113 59.9253 178.876 60.1737C178.638 60.4221 176.841 57.2121 176.366 57.7857C176.109 58.0969 178.036 60.6001 177.584 60.7525C177.132 60.9048 175.347 59.2185 175.085 59.6039C174.822 59.9906 176.78 60.8178 177.243 62.0098C177.706 63.2006 178.678 63.8165 178.84 65.9318C178.905 66.782 178.891 68.5092 178.964 70.5297C180.302 70.4427 181.629 70.3057 182.916 69.9561Z" fill="#F7A491"/>
<path d="M183.716 165.554C184.009 164.998 186.032 167.16 186.518 167.61C187.063 168.114 187.048 168.598 187.02 168.706C186.947 168.986 180.32 175.597 178.521 176.394C178.351 176.469 178.018 176.428 177.925 176.376C177.04 175.878 179.291 170.048 180.659 169.018C181.542 168.354 182.392 168.053 183.716 165.554Z" fill="#184655"/>
<path d="M177.143 68.7501C177.514 71.7898 177.884 74.8295 178.297 77.8628C178.781 81.4211 180.451 84.681 182.164 87.7873C182.628 88.6273 186.655 94.3789 186.23 95.1599C186.23 95.1599 184.958 97.4954 185.285 99.2265C187.405 110.497 183.268 119.442 177.16 128.562C175.456 131.108 173.847 133.772 172.808 136.668C171.78 139.535 171.821 142.337 171.58 145.302C171.24 149.512 170.935 153.725 170.615 157.935C170.615 157.935 179.948 161.442 184.605 157.873C189.263 154.304 196.346 158.698 200.181 159.377C204.016 160.057 213.405 154.98 215.23 150.106C217.031 145.296 215.678 134.75 215.643 134.482C215.706 134.964 207.582 137.525 206.728 135.96C206.159 134.918 207.062 131.511 207.071 130.25C207.085 128.076 206.953 125.901 206.678 123.744C206.104 119.256 204.426 115.187 203.413 110.864C202.738 107.978 201.044 103.981 201.906 101.006C202.381 99.3674 215.328 97.5492 221.43 95.9602C227.529 94.3699 232.162 90.6081 232.162 90.6081L230.008 85.4685C230.008 85.4685 220.752 88.5568 215.992 89.0831C211.23 89.6093 200.856 92.708 194.208 90.7412C187.56 88.7745 184.136 76.2111 184.136 76.2111L182.126 66.9127L177.143 68.7501Z" fill="#355389"/>
<path d="M198.121 87.2331C198.121 87.2331 197.477 90.5634 197.59 91.8797C197.702 93.1972 197.072 97.4316 194.408 97.4239C191.742 97.4149 193.947 92.0282 194.208 90.7414C194.469 89.4546 194.563 85.4635 194.563 85.4635L198.121 87.2331Z" fill="#F7A491"/>
<path d="M197.319 94.2753C196.726 94.5327 196.075 94.6774 195.418 94.5685C194.441 94.4072 193.889 93.694 193.578 92.9463C193.031 94.9411 192.601 97.4175 194.407 97.4239C196.051 97.429 196.921 95.8182 197.319 94.2753Z" fill="white"/>
<path d="M194.491 87.4659C194.541 86.3737 194.562 85.4633 194.562 85.4633L198.121 87.2328C198.121 87.2328 197.989 87.914 197.856 88.7821C196.288 89.0971 195.16 88.4825 194.491 87.4659Z" fill="#F47458"/>
<path d="M199.504 78.0381C199.504 78.0381 200.875 78.8486 201.363 80.5835C201.852 82.3172 201.242 86.7769 197.676 87.8256C194.11 88.873 192.598 85.3249 193.354 82.5669C194.109 79.8089 195.733 76.321 199.504 78.0381Z" fill="#F7A491"/>
<path d="M192.919 81.4915C192.981 82.2354 193.369 82.8052 193.783 82.7668C194.198 82.7271 194.482 82.0933 194.418 81.3506C194.355 80.608 193.967 80.0369 193.554 80.0754C193.139 80.1151 192.855 80.7489 192.919 81.4915Z" fill="#F7A491"/>
<path d="M199.089 77.8104C199.089 77.8104 199.692 82.7964 201.226 83.708C202.76 84.6184 202.096 86.8233 202.096 86.8233C202.096 86.8233 203.536 81.7042 202.332 80.0461C201.127 78.3892 199.089 77.8104 199.089 77.8104Z" fill="#F47458"/>
<path d="M200.308 84.4146C199.884 85.0599 199.879 85.8256 200.296 86.1239C200.713 86.4223 201.395 86.1419 201.818 85.4965C202.241 84.8499 202.246 84.0855 201.829 83.7872C201.411 83.4876 200.73 83.7692 200.308 84.4146Z" fill="#F7A491"/>
<path d="M79.3428 70.8808C79.3428 70.8808 76.8729 67.5159 77.316 66.5633C77.759 65.6106 77.1892 63.9602 77.1892 63.9602L75.3531 62.818L71.7359 66.2893V66.3686C71.7359 66.3686 73.9549 69.5274 74.3147 69.6068C74.4568 69.6388 74.677 69.6888 74.8921 69.7387L77.2532 72.9538L79.3428 70.8808Z" fill="#F79C8D"/>
<path d="M102.093 47.2481L93.9907 55.5388C93.6795 55.8576 93.709 56.2161 94.056 56.339L103.877 59.8269C104.225 59.9498 104.759 59.7923 105.07 59.4735L113.173 51.1815C113.484 50.8627 113.454 50.5055 113.107 50.3813L103.287 46.8947C102.938 46.7705 102.404 46.9293 102.093 47.2481Z" fill="#355389"/>
<path d="M119.8 62.1804L113.682 51.5529C113.453 51.1573 113.589 50.6502 113.985 50.421L124.79 44.1649C125.186 43.937 125.69 44.0727 125.919 44.4684L132.038 55.0958C132.266 55.4928 132.131 55.9998 131.735 56.2277L120.93 62.4838C120.534 62.713 120.029 62.5773 119.8 62.1804Z" fill="#355389"/>
<path d="M118.388 58.7679C118.388 58.7679 117.607 55.4401 118.085 53.6859C118.553 51.9651 119.392 50.9548 119.619 50.7704C120.642 49.9382 121.863 49.3453 123.172 49.1481C126.155 48.6987 130.393 50.8959 130.45 54.4913L129.109 55.9241L118.388 58.7679Z" fill="#13375B"/>
<path d="M100.682 56.7846C99.4456 58.3045 90.2099 59.2494 87.475 60.4773C80.8872 63.4351 84.5607 74.7591 88.8412 75.4543C90.2893 75.6887 94.0358 74.6054 94.7644 75.0152C96.9641 76.252 99.8054 76.649 102.691 74.6233C105.579 72.599 104.145 70.9473 105.078 69.2623C106.012 67.5785 108.111 69.6361 109.243 66.001C110.467 62.0676 110.498 57.8921 109.384 55.6284C107.543 51.8819 104.415 51.531 102.727 52.2622C102.224 52.4798 100.953 56.453 100.682 56.7846Z" fill="#B75742"/>
<path d="M119.645 66.5146L114.82 66.6222L107.54 66.0998L102.316 65.7374L100.739 69.9538L116.446 77.2689L119.645 66.5146Z" fill="#13375B"/>
<path d="M130.033 71.2022C130.033 71.2022 130.828 69.9653 130.278 69.2329C130.278 69.2329 130.741 69.5249 130.714 70.0934C130.688 70.6619 130.033 71.2022 130.033 71.2022Z" fill="#F47458"/>
<path d="M104.082 74.2329L117.913 79.6708L124.712 82.0037L123.25 74.0972C112.935 73.5286 108.681 67.4428 106.391 67.1048C103.546 66.6848 104.082 74.2329 104.082 74.2329Z" fill="#355389"/>
<path d="M75.5771 137.313C73.7333 139.622 71.7077 141.423 71.4529 141.625C71.3313 141.722 70.5592 141.891 70.4311 141.989C69.0611 145.311 70.1379 148.373 71.3697 150.823C71.7833 148.989 72.193 146.464 72.499 146.178C72.9843 145.725 74.6898 143.739 77.9715 141.415C76.4568 140.313 76.3838 139.026 75.5771 137.313Z" fill="#F7A491"/>
<path d="M71.3543 141.675C70.1623 141.623 67.8511 142.149 67.8422 142.395C67.8294 142.688 68.1546 152.95 69.6168 154.007C70.4965 154.642 70.8153 153.084 71.3697 150.824C70.1379 148.373 70.5938 141.912 71.3543 141.675Z" fill="#F47458"/>
<path d="M98.0743 144.003C97.8887 146.453 97.4136 151.91 97.3009 152.426C97.2676 152.576 97.4136 153.177 97.4905 153.311C100.467 154.921 103.49 154.113 105.955 153.102C104.269 152.549 102.035 151.836 101.699 151.622C101.361 151.407 100.949 150.736 101.047 149.767C101.25 147.763 101.918 145.69 101.466 143.47C100.242 144.866 99.7901 143.35 98.0743 144.003Z" fill="#F7A491"/>
<path d="M97.3072 152.379C97.1138 153.544 97.0767 156.14 97.3072 156.169C97.5838 156.204 107.435 156.118 108.753 155.077C109.592 154.414 108.024 153.829 105.955 153.103C103.49 154.113 97.4403 153.144 97.3072 152.379Z" fill="#F47458"/>
<path d="M104.456 65.7821C104.456 65.7821 99.234 62.9473 93.7282 65.3289C93.3825 65.4787 92.3351 66.8654 92.3364 67.4083C92.3364 68.069 93.4107 69.8232 93.4107 69.8232L103.153 69.3532L104.456 65.7821Z" fill="#13375B"/>
<path d="M152.1 42.7104L152.687 42.7257C152.99 42.7321 153.242 42.4927 153.25 42.1905L153.553 29.9625C153.561 29.6604 153.322 29.4081 153.019 29.4004L152.432 29.3863C152.13 29.3787 151.877 29.6181 151.87 29.9216L151.565 42.1483C151.557 42.4504 151.797 42.7027 152.1 42.7104Z" fill="#13375B"/>
<path d="M155.219 45.2879C155.195 44.1829 156.259 38.0318 156.201 37.6028C156.144 37.1649 154.662 34.1329 154.537 33.8435C154.412 33.5541 153.854 33.2392 153.603 33.6771C153.466 33.9178 153.814 34.7654 154.156 35.485C153.808 34.8935 152.916 33.7897 152.538 33.841C151.808 33.9396 152.622 35.8973 153.178 36.6796C153.734 37.462 152.597 40.6809 152.597 40.6809C152.597 40.6809 151.889 41.2507 151.666 40.7181C151.444 40.1854 152.01 38.672 151.327 39.0843C150.644 39.4978 150.037 41.4517 150.377 41.9473C150.699 42.4197 151.991 45.526 152.11 45.8154H152.106L151.113 48.8666C152.337 49.4646 153.625 49.9563 154.891 50.4147C155.154 47.681 155.219 45.2879 155.219 45.2879Z" fill="#F7A491"/>
<path d="M112.288 141.9C112.288 141.9 109.964 144.79 109.385 145.145C108.807 145.501 109.644 149.698 111.22 149.975C112.11 150.129 112.603 149.149 112.603 149.149L112.348 147.939L115.668 144.508L112.288 141.9Z" fill="#F7A491"/>
<path d="M123.274 142C123.274 142 121.337 145.164 120.808 145.59C120.279 146.017 121.644 150.073 123.243 150.144C124.145 150.185 124.51 149.147 124.51 149.147L124.102 147.981L126.959 144.154L123.274 142Z" fill="#F7A491"/>
<path d="M120.924 145.466C120.924 145.466 122.037 146.889 122.644 147.455C123.428 148.186 124.431 148.9 124.431 148.9C124.431 148.9 125.567 150.968 125.878 151.69C126.57 153.297 127.347 155.088 127.234 155.987C127.198 156.277 126.552 156.583 126.013 156.416C123.768 155.724 118.028 150.458 117.303 149.046C116.467 147.415 120.924 145.466 120.924 145.466Z" fill="#07345A"/>
<path d="M137.307 97.2853C137.099 96.7002 136.899 96.1599 136.706 95.6502C134.319 96.1727 131.622 96.7476 128.848 97.3404L128.51 107.536C128.511 106.749 130.595 123.799 130.595 123.799C130.595 123.799 125.691 135.645 122.004 142.621C123.517 144.513 123.917 144.784 126.109 146.074C131.832 139.193 139.145 127.068 139.456 124.974C139.635 123.769 139.796 104.306 137.307 97.2853Z" fill="#B75742"/>
<path d="M116.44 102.076C117.17 110.021 118.793 125.209 118.657 126.432C118.25 127.954 111.329 142.009 110.031 144.055C111.061 145.612 112.581 147.078 114.297 147.543C114.636 147.635 126.325 130.862 126.974 129.514C127.708 127.99 128.931 119.674 128.953 109.378L129.291 99.1819C124.668 100.17 120.419 101.138 116.44 102.076Z" fill="#F47458"/>
<path d="M135.534 74.5261C135.534 74.5261 148.112 68.2188 149.287 66.8078C150.087 65.8487 156.173 47.9767 156.173 47.9767C156.276 46.7961 151.329 46.3595 151.178 46.5926C150.6 47.485 144.31 61.7168 144.31 61.7168L129.984 65.8359L126.633 66.8244L135.534 74.5261Z" fill="#13375B"/>
<path d="M109.517 145.037C109.517 145.037 110.439 146.59 110.969 147.229C111.653 148.055 112.557 148.893 112.557 148.893C112.557 148.893 113.421 151.09 113.638 151.845C114.118 153.528 114.662 155.558 114.437 156.437C114.364 156.719 113.745 157.256 113.236 156.923C111.268 155.638 106.008 149.619 105.47 148.123C104.848 146.4 109.517 145.037 109.517 145.037Z" fill="#07345A"/>
<path d="M102.279 93.6864L105.678 93.7197C105.678 93.7197 104.773 99.9412 104.783 101.987C104.794 104.035 107.609 121.085 107.413 123.299C107.217 125.512 101.635 148.758 101.635 148.758L97.0382 148.625C97.0382 148.625 97.7923 133.689 98.6092 130.739C99.4249 127.789 100.08 125.099 100.08 125.099L95.0561 107.392L102.279 93.6864Z" fill="#3C8F7C"/>
<path d="M105.647 93.1127C105.647 93.1127 99.9141 124.235 98.3866 125.355C96.8591 126.477 76.3891 142.845 76.3891 142.845L73.8718 138.958C73.8718 138.958 82.576 122.027 90.256 121.424C90.256 121.424 89.7745 101.062 91.1894 97.7811C92.6043 94.5007 97.2534 90.2548 97.2534 90.2548L105.649 91.7683L105.647 93.1127Z" fill="#50BFA5"/>
<path d="M142.563 34.2851L142.668 36.5283L139.088 37.0981L138.84 40.3965L136.23 41.262L136.667 42.5873L140.157 41.4298L140.393 38.303L144.118 37.7102L143.959 34.335L142.563 34.2851Z" fill="#FAE0B2"/>
<path d="M145.126 29.5285L142.898 29.7551L142.137 26.2007L138.839 26.1302L137.836 23.563L136.541 24.0713L137.881 27.5054L141.008 27.572L141.798 31.2698L145.151 30.9292L145.126 29.5285Z" fill="#FAE0B2"/>
<path d="M116.853 66.7848C115.301 79.0166 115.37 89.8924 114.822 102.206C114.564 107.994 114.655 116.693 113.234 122.286C112.43 125.456 109.275 128.369 107.078 130.711C107.071 130.717 109.955 132.058 110.136 132.123C112.914 133.114 115.906 133.51 118.847 133.372C122.753 133.188 126.538 132.29 130.481 132.081C134.854 131.85 138.557 134.313 142.81 133.304C144.142 132.989 147.286 121.589 145.37 110.593C142.399 93.5493 134.809 72.3341 134.809 72.3341L132.223 65.1676L116.853 66.7848Z" fill="#13375B"/>
<path d="M124.872 50.5607C124.872 50.5607 122.767 48.7873 121.529 51.3776C121.529 51.3776 120.289 50.8552 119.604 52.1164C119.604 52.1164 117.427 51.7207 117.275 54.9346C117.275 54.9346 116.169 54.8539 116.171 56.1612C116.175 57.4672 116.927 58.2534 116.927 58.2534C116.927 58.2534 116.37 58.781 116.781 59.9359C117.13 60.918 117.981 60.9769 117.981 60.9769C117.981 60.9769 118.399 62.6516 119.192 63.0806C119.986 63.5095 120.96 63.1485 120.96 63.1485C120.96 63.1485 121.33 64.0409 122.179 63.8604C123.028 63.6811 123.997 62.74 125 62.9986C126.002 63.2586 128.451 62.5851 128.451 62.5851C128.451 62.5851 131.109 61.0153 129.945 58.2419C129.945 58.2419 131.265 56.7425 129.796 55.2918C129.796 55.2918 130.453 52.6836 128.426 51.4211C126.399 50.1573 124.872 50.5607 124.872 50.5607Z" fill="#F7CC7F"/>
<path d="M126.086 64.0906L126.713 66.5835C126.713 66.5835 127.675 70.7871 126.036 70.8665C124.822 70.9254 121.791 66.2749 121.791 66.2749L121.921 60.5259L126.086 64.0906Z" fill="#F7A491"/>
<path d="M122.047 62.6182C123.106 64.7129 125.188 65.8384 126.617 66.2033L126.086 64.0907L121.921 60.526L122.047 62.6182Z" fill="#F47458"/>
<path d="M116.206 56.7617C116.317 57.7386 116.961 58.4685 117.645 58.3904C118.329 58.3123 118.792 57.4569 118.682 56.48C118.571 55.503 117.927 54.7732 117.243 54.8513C116.559 54.9294 116.096 55.7847 116.206 56.7617Z" fill="#F7CC7F"/>
<path d="M119.488 52.5361C119.552 53.097 120.278 53.476 121.109 53.3812C121.941 53.2865 122.563 52.7538 122.499 52.1917C122.435 51.6309 121.711 51.2519 120.878 51.3479C120.047 51.4427 119.424 51.974 119.488 52.5361Z" fill="#F7CC7F"/>
<path d="M123.423 53.5285C125.335 52.6142 127.607 53.6975 128.143 55.7205C128.378 56.6002 128.625 57.7103 128.786 58.9369C129.175 61.8883 127.976 64.9395 126.636 65.0932C125.297 65.2455 121.379 63.7539 120.769 59.5707C120.393 56.9894 121.416 54.4875 123.423 53.5285Z" fill="#F7A491"/>
<path d="M121.794 59.791C121.868 60.4427 121.497 61.0202 120.964 61.0816C120.433 61.1418 119.941 60.6629 119.867 60.0099C119.794 59.3582 120.164 58.7795 120.697 58.7193C121.228 58.6591 121.72 59.138 121.794 59.791Z" fill="#F7A491"/>
<path d="M129.056 51.3952C130.565 52.3363 131.238 53.9496 130.562 55.0008C129.886 56.0508 128.115 56.1391 126.608 55.198C125.1 54.2569 124.426 52.6436 125.102 51.5924C125.778 50.5424 127.549 50.4541 129.056 51.3952Z" fill="#F7CC7F"/>
<path d="M125.543 52.709C125.597 53.1866 125.065 53.6386 124.357 53.7193C123.648 53.8012 123.028 53.4785 122.974 53.0022C122.921 52.5246 123.451 52.0714 124.16 51.9907C124.869 51.91 125.489 52.2314 125.543 52.709Z" fill="#F7CC7F"/>
<path d="M129.781 55.9472C129.85 56.5605 129.416 57.1149 128.811 57.1841C128.205 57.2532 127.658 56.8115 127.589 56.1969C127.519 55.5836 127.953 55.0291 128.558 54.96C129.164 54.8921 129.711 55.3339 129.781 55.9472Z" fill="#F7CC7F"/>
<path d="M123.024 68.0266C124.006 69.3377 125.329 70.9011 126.036 70.8665C127.083 70.8153 127.068 69.0816 126.922 67.8358C126.133 69.0227 124.232 68.5131 123.024 68.0266Z" fill="white"/>
<path d="M120.85 46.0688C120.395 46.0688 119.917 46.0087 119.421 45.8665C118.424 45.581 117.716 45.0637 117.32 44.3313C116.703 43.193 117.071 41.9587 117.086 41.9062C117.118 41.8025 117.227 41.7449 117.329 41.7769C117.433 41.8076 117.491 41.9177 117.459 42.0202C117.456 42.0317 117.126 43.1559 117.665 44.1482C118.009 44.7833 118.637 45.2353 119.529 45.4914C122.455 46.3313 124.849 44.0074 124.872 43.983C124.949 43.9075 125.073 43.9088 125.149 43.9856C125.224 44.0624 125.223 44.1866 125.146 44.2622C125.059 44.3493 123.286 46.0688 120.85 46.0688Z" fill="#F7CC7F"/>
<path d="M118.205 39.5606L117.744 40.8602C117.497 40.8167 117.219 40.9127 117.026 41.1342C116.743 41.4569 116.747 41.9217 117.032 42.1726C117.316 42.4236 117.777 42.366 118.059 42.0433C118.243 41.8333 118.306 41.5606 118.247 41.3275L119.489 40.6912L121.549 39.6374L118.981 37.3762L118.205 39.5606Z" fill="#F7CC7F"/>
<path d="M101.467 51.3776C101.173 51.7259 100.818 52.0537 100.39 52.3405C99.5273 52.9205 98.677 53.1279 97.864 52.9589C96.5989 52.6951 95.896 51.617 95.8665 51.5709C95.8076 51.48 95.8345 51.3584 95.9255 51.3008C96.0151 51.2419 96.1367 51.2688 96.1943 51.3597C96.2007 51.3686 96.8435 52.3482 97.9472 52.5761C98.6527 52.722 99.4018 52.5338 100.174 52.0153C102.703 50.3187 102.48 46.9845 102.477 46.9512C102.468 46.8437 102.549 46.7502 102.657 46.7412C102.764 46.7335 102.858 46.8142 102.867 46.9217C102.876 47.0447 103.039 49.5133 101.467 51.3776Z" fill="#F7CC7F"/>
<path d="M94.804 49.1993L95.4954 50.3901C95.3021 50.5515 95.1958 50.8268 95.2394 51.1187C95.3021 51.5425 95.6581 51.8396 96.0332 51.7832C96.4097 51.7269 96.6632 51.3389 96.5992 50.9151C96.5582 50.6372 96.3918 50.4132 96.1754 50.3082L96.4942 48.9458L97.0217 46.6884L93.6414 47.1942L94.804 49.1993Z" fill="#F7CC7F"/>
<path d="M78.6462 68.531L74.5937 71.8319C74.5937 71.8319 83.2813 84.3211 84.7769 84.1854C86.2711 84.0484 95.1969 76.3339 95.2046 76.3275C94.8768 76.6104 94.9331 78.7987 94.8717 79.225C93.7167 87.3262 93.0368 87.453 88.9344 96.9409C85.5118 104.856 88.531 112 83.0995 119.479C80.3991 123.198 76.0611 125.627 72.2698 128.081C72.2698 128.081 76.8921 135.169 83.6898 135.169C90.4862 135.169 94.0215 134.624 98.2353 136.533C102.45 138.44 109.168 137.138 111.343 135.912C113.059 134.944 114.37 133.095 116.028 132.033C113.71 124.842 112.426 118.037 110.742 110.672C109.173 103.805 106.538 96.2508 108.744 89.3199C110.837 82.7385 113.388 74.0112 108.342 67.8678C108.342 67.8678 105.854 66.5067 100.246 65.5873C94.6386 64.6667 85.4619 75.8102 85.4619 75.8102L78.6462 68.531Z" fill="#466EB6"/>
<path d="M94.4876 70.836C94.608 70.7259 94.2648 70.2009 94.2085 69.9128C94.6298 70.8181 95.0331 71.8757 95.2956 71.6504C95.4083 71.5543 95.1253 70.2099 95.1151 69.9704C95.3058 70.4032 95.5658 71.5774 95.9896 71.3712C96.2444 71.247 95.9793 69.8782 95.8052 69.0946C95.9486 69.5671 96.3455 71.0742 96.4915 70.9512C96.8078 70.6836 96.1048 67.3238 96.4979 66.804C96.6516 66.6004 96.1791 66.2022 95.5542 66.0063C95.1791 65.8897 94.7488 65.8462 94.3673 65.9615C93.8077 66.028 93.3506 66.3289 93.0164 66.5274C92.809 66.6516 92.6528 66.8181 92.5363 66.9986C92.1791 67.5504 92.1727 68.2598 92.4774 68.8424C92.9204 69.6926 94.1496 71.1446 94.4876 70.836Z" fill="#F8A492"/>
<path d="M97.4031 67.3917C97.4031 67.3917 97.2494 66.7951 97.0548 66.489C96.8589 66.1817 94.8371 65.4583 93.7833 66.1228C92.7296 66.7874 96.1112 67.2048 96.1112 67.2048C96.1112 67.2048 96.5452 67.4263 96.7488 67.7413C96.9524 68.0563 96.7142 68.7131 97.0202 68.8399C97.3263 68.9679 97.59 68.0998 97.4031 67.3917Z" fill="#F8A492"/>
<path d="M130.311 69.2675C130.191 69.1574 130.534 68.6324 130.59 68.3456C130.168 69.2508 129.766 70.3072 129.503 70.0831C129.391 69.9871 129.674 68.6426 129.683 68.4019C129.492 68.8347 129.232 70.0088 128.808 69.8027C128.555 69.6798 128.82 68.311 128.992 67.5274C128.85 67.9999 128.453 69.5069 128.306 69.384C127.99 69.1164 128.694 65.7566 128.3 65.2367C128.146 65.0331 128.62 64.6337 129.245 64.439C129.62 64.3212 130.049 64.2777 130.432 64.3942C130.991 64.4608 131.447 64.7604 131.781 64.9602C131.989 65.0844 132.145 65.2508 132.263 65.4314C132.62 65.9819 132.625 66.6913 132.322 67.2739C131.877 68.1253 130.648 69.5761 130.311 69.2675Z" fill="#F8A492"/>
<path d="M127.396 65.8242C127.396 65.8242 127.548 65.2275 127.744 64.9202C127.939 64.6142 129.962 63.8895 131.014 64.554C132.068 65.2186 128.686 65.636 128.686 65.636C128.686 65.636 128.253 65.8575 128.049 66.1738C127.845 66.4888 128.083 67.1443 127.777 67.2724C127.471 67.4004 127.209 66.531 127.396 65.8242Z" fill="#F8A492"/>
<path d="M103.48 62.311C103.48 62.311 103.068 65.6632 102.556 66.8642C102.042 68.0652 102.964 72.6786 105.503 73.5736C108.041 74.4686 105.976 68.2381 106.123 66.9385C106.27 65.6388 107.411 61.8526 107.411 61.8526L103.48 62.311Z" fill="#F7A491"/>
<path d="M105.503 73.5733C107.443 74.2584 106.694 70.7795 106.298 68.5208L106.291 68.5413C105.442 70.8665 103.698 69.7398 102.465 68.5042C102.68 70.3429 103.67 72.9267 105.503 73.5733Z" fill="white"/>
<path d="M106.863 63.7602C107.151 62.7154 107.411 61.8524 107.411 61.8524L103.48 62.3108C103.48 62.3108 103.396 62.9971 103.256 63.8588C104.649 64.686 105.913 64.4901 106.863 63.7602Z" fill="#F47458"/>
<path d="M110.198 58.6706C109.909 59.3492 109.365 59.7551 108.983 59.5771C108.6 59.4004 108.526 58.7077 108.814 58.0304C109.103 57.3517 109.648 56.9471 110.031 57.1238C110.412 57.3005 110.488 57.9932 110.198 58.6706Z" fill="#F7A491"/>
<path d="M104.995 53.1907C104.995 53.1907 103.441 53.4877 102.441 54.9551C101.443 56.4211 100.65 60.8245 103.721 63.0191C106.791 65.2138 109.322 62.3866 109.453 59.5351C109.582 56.6836 109.112 52.8526 104.995 53.1907Z" fill="#F7A491"/>
<path d="M102.268 58.918C102.471 59.6696 102.241 60.3905 101.752 60.53C101.262 60.6696 100.7 60.1753 100.497 59.4237C100.293 58.6734 100.524 57.9513 101.013 57.8117C101.502 57.6721 102.064 58.1677 102.268 58.918Z" fill="#F7A491"/>
<path d="M100.495 56.9716C100.495 56.9716 107.21 54.2673 109.384 55.6284L108.636 52.2174C108.3 50.6886 104.876 51.3902 103.873 51.5439C102.65 51.7308 100.365 52.284 99.8667 53.581C99.5274 54.4671 100.495 56.9716 100.495 56.9716Z" fill="#13375B"/>
<path d="M76.8731 53.4263L75.9999 55.6465C74.7835 61.886 72.6106 65.3354 67.115 70.1037L66.6964 70.5749C66.6964 70.5749 68.0177 74.7145 72.0242 73.516C74.6733 68.1139 77.8629 63.1997 81.7617 58.5543L83.2201 57.0178L76.8731 53.4263Z" fill="#466EB6"/>
<path d="M83.2238 57.0127C83.0125 57.343 81.4261 56.8065 79.6783 55.8129C77.9318 54.8193 76.6693 53.7438 76.8793 53.4134C77.0906 53.0818 78.6937 53.6196 80.4414 54.6132C82.1879 55.6068 83.4338 56.6811 83.2238 57.0127Z" fill="#86B1F2"/>
<path d="M83.2162 57.0227L83.2187 57.0163C83.2187 57.0163 79.2456 55.2442 78.4415 54.1277L78.0548 54.7679C78.5068 55.1021 79.0625 55.4618 79.6784 55.8127C81.4057 56.7948 82.9767 57.3313 83.2162 57.0227Z" fill="#355389"/>
<path d="M75.3058 63.5633C75.3058 63.5633 74.8001 63.9129 75.0689 64.3725C75.3378 64.8335 76.3826 65.0396 76.3826 65.0396C76.3826 65.0396 75.8129 65.8489 76.0971 66.6901C76.3826 67.5313 77.3161 64.8642 77.3161 64.8642L77.2853 64.1664L75.3058 63.5633Z" fill="#F79C8D"/>
<path d="M74.7823 68.4005C75.0921 67.8768 75.4071 67.3569 75.7285 66.8422C75.0435 65.4542 74.1856 63.814 73.5134 62.8345C73.224 63.3428 72.9103 63.8396 72.5671 64.3313C73.2125 65.435 74.1164 67.0483 74.7823 68.4005Z" fill="#B75742"/>
<path d="M73.553 62.7424C73.553 62.7424 72.8693 62.7424 72.6631 62.8678C72.4557 62.992 72.7246 63.3864 72.4557 63.5938C72.1868 63.8013 71.6477 63.7398 71.69 64.1342C71.731 64.5285 71.5133 64.8819 71.3071 65.1726C71.0997 65.4632 72.2278 67.1649 72.7451 67.2277C73.2636 67.2891 72.2585 65.1098 72.3622 65.1508C72.4659 65.1931 73.2419 66.6041 73.553 66.4799C73.8641 66.3557 73.0664 64.1342 73.0664 64.1342C73.0664 64.1342 73.8424 65.5042 74.1535 65.3173C74.4634 65.1303 73.553 62.7424 73.553 62.7424Z" fill="#F79C8D"/>
<path d="M191.409 58.6106C191.003 58.3993 190.605 58.1227 190.228 57.7668C189.472 57.0472 189.081 56.261 189.07 55.4275C189.052 54.1317 189.956 53.2098 189.994 53.1701C190.071 53.0945 190.195 53.0933 190.272 53.1701C190.35 53.2456 190.35 53.3698 190.273 53.4454C190.266 53.4543 189.445 54.2968 189.463 55.4262C189.474 56.1483 189.824 56.841 190.5 57.4838C192.72 59.5901 195.943 58.6477 195.975 58.6387C196.079 58.6067 196.189 58.6656 196.221 58.7693C196.251 58.8718 196.193 58.9819 196.089 59.0126C195.971 59.0485 193.584 59.7463 191.409 58.6106Z" fill="#F7CC7F"/>
<path d="M192.089 51.6155L191.071 52.5515C190.87 52.3966 190.576 52.3531 190.3 52.4593C189.898 52.613 189.684 53.0253 189.821 53.3812C189.959 53.7359 190.396 53.8998 190.798 53.7461C191.062 53.645 191.245 53.4337 191.3 53.1994L192.707 53.2148L195.039 53.2417L193.802 50.0419L192.089 51.6155Z" fill="#F7CC7F"/>
<path d="M200.756 60.5489C201.263 60.9535 202.145 62.2557 203.271 63.1699C203.929 63.7038 204.436 63.5681 205.276 63.6706C209.263 64.152 208.182 64.9663 208.661 65.047C208.526 65.3594 207.284 67.9996 207.051 68.5336C206.837 69.0265 206.467 69.2468 205.93 69.1725C205.106 69.0586 204.273 68.974 203.462 68.7973C201.381 68.3466 200.223 67.3057 198.732 66.0419C198.336 65.7064 198.239 65.2877 198.444 64.814C199.399 62.6078 200.652 60.7512 200.756 60.5489Z" fill="#466EB6"/>
<path d="M214.342 66.2803C212.056 64.3725 209.766 62.466 207.483 60.5543C206.732 59.9256 205.876 59.5594 204.904 59.4455C204.166 59.3597 196.884 58.4544 196.141 58.3622C195.869 58.3277 195.615 58.3392 195.423 58.5658C195.173 58.8642 195.213 59.2509 195.528 59.5159C197.851 61.4621 200.175 63.4071 202.5 65.352C203.172 65.9154 203.947 66.2535 204.816 66.3597L213.846 67.4609C214.245 67.5467 214.509 67.3943 214.631 67.0742C214.741 66.7823 214.656 66.5428 214.342 66.2803Z" fill="#355389"/>
<path d="M221.549 39.595L223.175 39.0636L224.318 41.5848L226.791 41.102L227.955 42.8498L228.839 42.2608L227.282 39.9241L224.939 40.3812L223.75 37.7576L221.304 38.5566L221.549 39.595Z" fill="#50BFA5"/>
<path d="M244.173 136.657L245.8 136.127L246.942 138.648L249.415 138.165L250.579 139.913L251.463 139.324L249.907 136.987L247.564 137.444L246.375 134.821L243.928 135.62L244.173 136.657Z" fill="#F7CC7F"/>
<path d="M131.483 7.31059C130.816 10.6115 127.598 12.7472 124.297 12.0789C120.996 11.4092 118.862 8.19152 119.53 4.8906C120.197 1.58841 123.415 -0.546051 126.716 0.122327C130.017 0.790704 132.151 4.00968 131.483 7.31059Z" fill="#F7CC7F"/>
<path d="M122.119 6.4004C121.762 8.16609 122.904 9.88568 124.668 10.2442C126.433 10.6014 128.154 9.45931 128.511 7.6949L122.119 6.4004Z" fill="#EFEFEF"/>
<path d="M41.2993 97.7375C40.6591 99.8822 39.8 101.163 39.001 101.163C38.2033 101.163 37.3429 99.8822 36.7026 97.7375C35.9882 95.3444 35.5951 92.1049 35.5951 88.6145C35.5951 85.1241 35.9882 81.8833 36.7026 79.4915C37.3429 77.3468 38.2033 76.0664 39.001 76.0664C39.8 76.0664 40.6591 77.3468 41.2993 79.4915C42.0138 81.8833 42.4082 85.1241 42.4082 88.6145C42.4082 92.1049 42.0138 95.3444 41.2993 97.7375ZM40.6297 76.4006C40.1342 75.7399 39.5861 75.4057 39.001 75.4057C35.6809 75.4057 34.9331 85.1881 34.9331 88.6145C34.9331 92.5236 35.3672 95.8847 36.1866 98.3354C36.9421 100.593 37.9498 101.836 39.0253 101.836C40.1662 101.836 41.2084 100.407 41.9613 97.813C43.8832 91.1933 43.1726 79.7873 40.6297 76.4006Z" fill="#B75742"/>
<path d="M50.1163 94.2739C49.9153 94.7694 49.2252 95.0319 48.1202 95.0319C44.2495 95.0306 35.4415 91.7361 29.8909 86.3712C27.7744 84.3238 27.5746 83.2892 27.7808 82.7809C27.9805 82.2867 28.6681 82.0254 29.7705 82.0254C31.8307 82.0254 35.051 82.9166 38.3826 84.4083C42.1457 86.092 45.5619 88.3187 48.0036 90.6798C50.1227 92.7272 50.3212 93.7643 50.1163 94.2739ZM50.2866 92.2675C47.6311 87.8616 35.357 81.3046 29.7667 81.3046C28.4773 81.3046 27.6361 81.658 27.2686 82.3558C26.9242 83.0075 27.0394 83.8193 27.6117 84.7694C30.275 89.1881 42.5311 95.7643 48.1022 95.7643C49.4031 95.7643 50.2521 95.4045 50.6272 94.6952C50.9755 94.037 50.8603 93.2201 50.2866 92.2675Z" fill="#B75742"/>
<path d="M44.2082 89.1817C40.294 91.9128 35.7191 94.0293 31.9713 94.8462C31.0724 95.0409 30.2837 95.1407 29.6269 95.1407C28.6358 95.1407 27.9892 94.9141 27.7562 94.4852C27.5295 94.0678 27.632 93.4903 28.0596 92.772C29.1877 90.877 32.5411 88.1573 36.6038 85.8424C40.9688 83.3558 45.2108 81.8718 47.9483 81.8718C49.2057 81.8718 49.8792 82.2021 49.9483 82.8526C50.0905 84.165 47.8369 86.649 44.2082 89.1817ZM50.4003 82.2111C50.0162 81.5018 49.1775 81.142 47.9086 81.142C45.3734 81.142 41.0623 82.6567 36.6563 85.0933C32.2556 87.5287 28.751 90.3341 27.5116 92.4147C26.9457 93.3661 26.8317 94.1689 27.1749 94.8014C27.55 95.4941 28.3797 95.845 29.6384 95.845C35.1698 95.845 47.3888 89.1522 50.0661 84.6554C50.6423 83.6874 50.755 82.8654 50.4003 82.2111Z" fill="#B75742"/>
<path d="M41.1275 88.2177C41.1275 89.3854 40.1813 90.3316 39.0136 90.3316C37.8458 90.3316 36.8996 89.3854 36.8996 88.2177C36.8996 87.0499 37.8458 86.1037 39.0136 86.1037C40.1813 86.1037 41.1275 87.0499 41.1275 88.2177Z" fill="#F47458"/>
<path d="M38.3964 78.3084C38.3964 79.1842 37.687 79.8935 36.8112 79.8935C35.9354 79.8935 35.2261 79.1842 35.2261 78.3084C35.2261 77.4326 35.9354 76.7232 36.8112 76.7232C37.687 76.7232 38.3964 77.4326 38.3964 78.3084Z" fill="#F47458"/>
<path d="M43.2852 97.1138C43.2852 97.8436 42.6936 98.4352 41.9638 98.4352C41.2352 98.4352 40.6437 97.8436 40.6437 97.1138C40.6437 96.3839 41.2352 95.7924 41.9638 95.7924C42.6936 95.7924 43.2852 96.3839 43.2852 97.1138Z" fill="#F47458"/>
<path d="M30.4695 90.7718C30.4695 91.526 29.8588 92.1368 29.1046 92.1368C28.3504 92.1368 27.7397 91.526 27.7397 90.7718C27.7397 90.0177 28.3504 89.4069 29.1046 89.4069C29.8588 89.4069 30.4695 90.0177 30.4695 90.7718Z" fill="#F47458"/>
<path d="M50.6847 84.6722C50.6847 85.2932 50.1815 85.7951 49.5618 85.7951C48.9408 85.7951 48.4388 85.2932 48.4388 84.6722C48.4388 84.0525 48.9408 83.5493 49.5618 83.5493C50.1815 83.5493 50.6847 84.0525 50.6847 84.6722Z" fill="#F47458"/>
<path d="M34.0519 82.3185C34.0519 82.9382 33.55 83.4415 32.929 83.4415C32.3093 83.4415 31.8061 82.9382 31.8061 82.3185C31.8061 81.6988 32.3093 81.1956 32.929 81.1956C33.55 81.1956 34.0519 81.6988 34.0519 82.3185Z" fill="#F47458"/>
<path d="M266.659 106.558L261.362 108.291L261.063 107.378L266.36 105.645L266.659 106.558Z" fill="#9BC1F9"/>
<path d="M254.883 100.723L254.038 100.269L256.819 95.0996L257.664 95.5542L254.883 100.723Z" fill="#9BC1F9"/>
<path d="M262.005 122.369L258.025 117.712L258.755 117.088L262.735 121.745L262.005 122.369Z" fill="#9BC1F9"/>
<path d="M258.71 117.477L249.07 120.082L241.789 114.032L242.403 113.295L249.3 119.026L257.932 116.693L260.398 107.811L254.029 100.994L254.729 100.338L261.466 107.548L258.71 117.477Z" fill="#9BC1F9"/>
<path d="M244.106 112.868C244.532 114.075 243.9 115.399 242.692 115.827C241.485 116.255 240.159 115.622 239.733 114.415C239.305 113.206 239.938 111.882 241.145 111.454C242.353 111.027 243.678 111.659 244.106 112.868Z" fill="#96D9C9"/>
<path d="M251.403 119.108C251.829 120.316 251.197 121.642 249.989 122.068C248.782 122.496 247.457 121.863 247.03 120.654C246.603 119.447 247.235 118.123 248.443 117.695C249.65 117.268 250.975 117.9 251.403 119.108Z" fill="#96D9C9"/>
<path d="M260.541 116.328C260.969 117.535 260.336 118.86 259.129 119.288C257.921 119.714 256.596 119.082 256.168 117.874C255.741 116.667 256.375 115.342 257.582 114.915C258.789 114.488 260.115 115.12 260.541 116.328Z" fill="#96D9C9"/>
<path d="M265.221 121.882C265.647 123.091 265.015 124.415 263.807 124.843C262.6 125.27 261.275 124.638 260.848 123.429C260.421 122.222 261.053 120.898 262.261 120.47C263.468 120.042 264.793 120.675 265.221 121.882Z" fill="#96D9C9"/>
<path d="M270.199 105.023C270.627 106.23 269.993 107.556 268.787 107.982C267.578 108.41 266.253 107.777 265.827 106.57C265.399 105.362 266.032 104.037 267.239 103.609C268.448 103.183 269.773 103.816 270.199 105.023Z" fill="#96D9C9"/>
<path d="M260.33 93.6697C260.757 94.8771 260.125 96.2023 258.917 96.6287C257.71 97.0564 256.385 96.4239 255.957 95.2164C255.531 94.009 256.163 92.6838 257.371 92.2561C258.578 91.8297 259.903 92.4622 260.33 93.6697Z" fill="#96D9C9"/>
<path d="M263.504 106.798C263.93 108.005 263.298 109.33 262.09 109.757C260.883 110.184 259.558 109.552 259.131 108.345C258.704 107.137 259.336 105.812 260.544 105.384C261.751 104.958 263.076 105.59 263.504 106.798Z" fill="#96D9C9"/>
<path d="M256.646 99.7221C257.074 100.93 256.441 102.255 255.234 102.682C254.026 103.109 252.701 102.476 252.273 101.269C251.847 100.061 252.48 98.7362 253.687 98.3098C254.894 97.8822 256.22 98.5147 256.646 99.7221Z" fill="#96D9C9"/>
<path d="M255.583 84.0435L252.472 83.3956L253.133 80.8822L254.061 81.1255L253.656 82.662L255.779 83.1037L255.583 84.0435Z" fill="#F47458"/>
<path d="M45.2057 111.835L44.5053 113.777L41.2556 112.996L39.8805 115.711L37.3529 115.522L37.2582 116.803L40.6385 117.054L41.9419 114.48L45.3235 115.295L46.3773 112.371L45.2057 111.835Z" fill="#50BFA5"/>
<path d="M42.2314 57.8474L43.9331 58.0241L43.951 60.7923L46.4068 61.357L46.7602 63.4261L47.8076 63.2482L47.3351 60.4799L45.0086 59.9447L44.9881 57.065L42.4286 56.8L42.2314 57.8474Z" fill="#9BC1F9"/>
</svg>
