<svg width="26" height="24" viewBox="0 0 26 24" fill="none" xmlns="http://www.w3.org/2000/svg">
<g opacity="0.5">
<path d="M13 17.1601C15.2975 17.1601 17.16 15.2976 17.16 13.0001C17.16 10.7026 15.2975 8.84009 13 8.84009C10.7025 8.84009 8.83997 10.7026 8.83997 13.0001C8.83997 15.2976 10.7025 17.1601 13 17.1601Z" fill="black"/>
<path d="M9.1 0L6.721 2.6H2.6C1.91107 2.60206 1.25094 2.87665 0.763795 3.3638C0.276646 3.85094 0.00205754 4.51107 0 5.2V20.8C0.00205754 21.4889 0.276646 22.1491 0.763795 22.6362C1.25094 23.1234 1.91107 23.3979 2.6 23.4H23.4C24.0889 23.3979 24.7491 23.1234 25.2362 22.6362C25.7234 22.1491 25.9979 21.4889 26 20.8V5.2C25.9979 4.51107 25.7234 3.85094 25.2362 3.3638C24.7491 2.87665 24.0889 2.60206 23.4 2.6H19.279L16.9 0H9.1ZM13 19.5C11.7144 19.5 10.4577 19.1188 9.38879 18.4046C8.31987 17.6903 7.48675 16.6752 6.99478 15.4874C6.50281 14.2997 6.37409 12.9928 6.6249 11.7319C6.8757 10.471 7.49476 9.31285 8.40381 8.40381C9.31285 7.49476 10.471 6.8757 11.7319 6.6249C12.9928 6.37409 14.2997 6.50281 15.4874 6.99478C16.6752 7.48675 17.6903 8.31987 18.4046 9.38879C19.1188 10.4577 19.5 11.7144 19.5 13C19.5 14.7239 18.8152 16.3772 17.5962 17.5962C16.3772 18.8152 14.7239 19.5 13 19.5Z" fill="black"/>
</g>
</svg>
