<svg width="18" height="16" viewBox="0 0 18 16" fill="none" xmlns="http://www.w3.org/2000/svg">
<path fill-rule="evenodd" clip-rule="evenodd" d="M9 5C8.20435 5 7.44129 5.31607 6.87868 5.87868C6.31607 6.44129 6 7.20435 6 8C6 8.79565 6.31607 9.55871 6.87868 10.1213C7.44129 10.6839 8.20435 11 9 11C9.79565 11 10.5587 10.6839 11.1213 10.1213C11.6839 9.55871 12 8.79565 12 8C12 7.20435 11.6839 6.44129 11.1213 5.87868C10.5587 5.31607 9.79565 5 9 5ZM8.29289 7.29289C8.48043 7.10536 8.73478 7 9 7C9.26522 7 9.51957 7.10536 9.70711 7.29289C9.89464 7.48043 10 7.73478 10 8C10 8.26522 9.89464 8.51957 9.70711 8.70711C9.51957 8.89464 9.26522 9 9 9C8.73478 9 8.48043 8.89464 8.29289 8.70711C8.10536 8.51957 8 8.26522 8 8C8 7.73478 8.10536 7.48043 8.29289 7.29289Z" fill="black"/>
<path fill-rule="evenodd" clip-rule="evenodd" d="M17.2271 7.55217C17.3678 7.83366 17.3682 8.16565 17.2275 8.44714L16.333 7.99999C17.2275 8.44714 17.2269 8.44826 17.2267 8.44861L17.2257 8.45057L17.223 8.45595L17.2146 8.47245C17.2076 8.48596 17.198 8.50443 17.1858 8.52754C17.1614 8.57375 17.1264 8.63857 17.0809 8.71935C16.9901 8.88077 16.8573 9.10672 16.6836 9.37576C16.3374 9.91189 15.8222 10.6292 15.1462 11.3504C13.8122 12.7733 11.733 14.333 8.99999 14.333C6.26701 14.333 4.18775 12.7733 2.85382 11.3504C2.17774 10.6292 1.66263 9.91189 1.31641 9.37576C1.14268 9.10672 1.00984 8.88077 0.919055 8.71935C0.873623 8.63857 0.838609 8.57375 0.814162 8.52754C0.801935 8.50443 0.792341 8.48596 0.785399 8.47245L0.776973 8.45595L0.774254 8.45057L0.772531 8.44714L1.66628 8.00035C0.778453 8.44418 0.772403 8.44678 0.772531 8.44714C0.631812 8.16565 0.631812 7.83434 0.772531 7.55285L1.66628 8.00035C0.771819 7.5532 0.773094 7.55172 0.773268 7.55138L0.774254 7.54941L0.776973 7.54403L0.785399 7.52753C0.792341 7.51403 0.801935 7.49555 0.814162 7.47244C0.838609 7.42624 0.873623 7.36141 0.919055 7.28064C1.00984 7.11921 1.14268 6.89326 1.31641 6.62423C1.66263 6.08809 2.17774 5.37074 2.85382 4.64956C4.18775 3.22665 6.26701 1.66699 8.99999 1.66699C11.733 1.66699 13.8122 3.22665 15.1462 4.64956C15.8222 5.37074 16.3374 6.08809 16.6836 6.62423C16.8573 6.89326 16.9901 7.11921 17.0809 7.28064C17.1264 7.36141 17.1614 7.42624 17.1858 7.47244C17.198 7.49555 17.2076 7.51403 17.2146 7.52753L17.223 7.54403L17.2257 7.54941L17.2271 7.55217ZM2.99654 8.29079C2.92804 8.18471 2.8674 8.08713 2.81474 7.99999C2.8674 7.91286 2.92804 7.81527 2.99654 7.70919C3.29605 7.24539 3.73912 6.6295 4.31292 6.01742C5.47874 4.77383 7.06598 3.66699 8.99999 3.66699C10.934 3.66699 12.5212 4.77383 13.6871 6.01742C14.2609 6.6295 14.7039 7.24539 15.0034 7.70919C15.0719 7.81527 15.1326 7.91286 15.1852 7.99999C15.1326 8.08713 15.0719 8.18471 15.0034 8.29079C14.7039 8.75459 14.2609 9.37049 13.6871 9.98256C12.5212 11.2262 10.934 12.333 8.99999 12.333C7.06598 12.333 5.47874 11.2262 4.31292 9.98256C3.73912 9.37049 3.29605 8.75459 2.99654 8.29079ZM16.333 7.99999C17.2275 7.55285 17.2273 7.55252 17.2271 7.55217L16.333 7.99999Z" fill="black"/>
</svg>
