<svg width="21" height="21" viewBox="0 0 21 21" fill="none" xmlns="http://www.w3.org/2000/svg">
<path d="M21 4.49993C21 3.70428 20.6839 2.94122 20.1213 2.37861C19.5587 1.816 18.7957 1.49993 18 1.49993H17.25V0.771025C17.25 0.367432 16.9397 0.0210253 16.5361 0.000869053C16.4347 -0.00401682 16.3333 0.0117366 16.2382 0.0471749C16.1431 0.0826132 16.0561 0.136999 15.9826 0.207035C15.9091 0.277072 15.8506 0.361302 15.8106 0.454621C15.7706 0.547941 15.75 0.648407 15.75 0.749932V1.49993H5.25V0.771025C5.25 0.367432 4.93969 0.0210253 4.53609 0.000869053C4.43469 -0.00401682 4.33334 0.0117366 4.2382 0.0471749C4.14307 0.0826132 4.05611 0.136999 3.98261 0.207035C3.90911 0.277072 3.8506 0.361302 3.81062 0.454621C3.77063 0.547941 3.75001 0.648407 3.75 0.749932V1.49993H3C2.20435 1.49993 1.44129 1.816 0.87868 2.37861C0.316071 2.94122 0 3.70428 0 4.49993V5.06243C0 5.11216 0.0197544 5.15985 0.0549175 5.19501C0.0900806 5.23018 0.137772 5.24993 0.1875 5.24993H20.8125C20.8622 5.24993 20.9099 5.23018 20.9451 5.19501C20.9802 5.15985 21 5.11216 21 5.06243V4.49993ZM0 17.9999C0 18.7956 0.316071 19.5586 0.87868 20.1213C1.44129 20.6839 2.20435 20.9999 3 20.9999H18C18.7957 20.9999 19.5587 20.6839 20.1213 20.1213C20.6839 19.5586 21 18.7956 21 17.9999V6.89056C21 6.85326 20.9852 6.81749 20.9588 6.79112C20.9324 6.76475 20.8967 6.74993 20.8594 6.74993H0.140625C0.103329 6.74993 0.0675605 6.76475 0.0411882 6.79112C0.0148159 6.81749 0 6.85326 0 6.89056V17.9999ZM16.125 8.24993C16.3475 8.24993 16.565 8.31591 16.75 8.43953C16.935 8.56314 17.0792 8.73885 17.1644 8.94441C17.2495 9.14998 17.2718 9.37618 17.2284 9.59441C17.185 9.81264 17.0778 10.0131 16.9205 10.1704C16.7632 10.3278 16.5627 10.4349 16.3445 10.4783C16.1262 10.5217 15.9 10.4994 15.6945 10.4143C15.4889 10.3291 15.3132 10.185 15.1896 9.99995C15.066 9.81494 15 9.59744 15 9.37493C15 9.07656 15.1185 8.79041 15.3295 8.57944C15.5405 8.36846 15.8266 8.24993 16.125 8.24993ZM16.125 11.9999C16.3475 11.9999 16.565 12.0659 16.75 12.1895C16.935 12.3131 17.0792 12.4888 17.1644 12.6944C17.2495 12.9 17.2718 13.1262 17.2284 13.3444C17.185 13.5626 17.0778 13.7631 16.9205 13.9204C16.7632 14.0778 16.5627 14.1849 16.3445 14.2283C16.1262 14.2717 15.9 14.2494 15.6945 14.1643C15.4889 14.0791 15.3132 13.935 15.1896 13.7499C15.066 13.5649 15 13.3474 15 13.1249C15 12.8266 15.1185 12.5404 15.3295 12.3294C15.5405 12.1185 15.8266 11.9999 16.125 11.9999ZM12.375 8.24993C12.5975 8.24993 12.815 8.31591 13 8.43953C13.185 8.56314 13.3292 8.73885 13.4144 8.94441C13.4995 9.14998 13.5218 9.37618 13.4784 9.59441C13.435 9.81264 13.3278 10.0131 13.1705 10.1704C13.0132 10.3278 12.8127 10.4349 12.5945 10.4783C12.3762 10.5217 12.15 10.4994 11.9445 10.4143C11.7389 10.3291 11.5632 10.185 11.4396 9.99995C11.316 9.81494 11.25 9.59744 11.25 9.37493C11.25 9.07656 11.3685 8.79041 11.5795 8.57944C11.7905 8.36846 12.0766 8.24993 12.375 8.24993ZM12.375 11.9999C12.5975 11.9999 12.815 12.0659 13 12.1895C13.185 12.3131 13.3292 12.4888 13.4144 12.6944C13.4995 12.9 13.5218 13.1262 13.4784 13.3444C13.435 13.5626 13.3278 13.7631 13.1705 13.9204C13.0132 14.0778 12.8127 14.1849 12.5945 14.2283C12.3762 14.2717 12.15 14.2494 11.9445 14.1643C11.7389 14.0791 11.5632 13.935 11.4396 13.7499C11.316 13.5649 11.25 13.3474 11.25 13.1249C11.25 12.8266 11.3685 12.5404 11.5795 12.3294C11.7905 12.1185 12.0766 11.9999 12.375 11.9999ZM12.375 15.7499C12.5975 15.7499 12.815 15.8159 13 15.9395C13.185 16.0631 13.3292 16.2388 13.4144 16.4444C13.4995 16.65 13.5218 16.8762 13.4784 17.0944C13.435 17.3126 13.3278 17.5131 13.1705 17.6704C13.0132 17.8278 12.8127 17.9349 12.5945 17.9783C12.3762 18.0217 12.15 17.9994 11.9445 17.9143C11.7389 17.8291 11.5632 17.685 11.4396 17.4999C11.316 17.3149 11.25 17.0974 11.25 16.8749C11.25 16.5766 11.3685 16.2904 11.5795 16.0794C11.7905 15.8685 12.0766 15.7499 12.375 15.7499ZM8.625 11.9999C8.8475 11.9999 9.06501 12.0659 9.25002 12.1895C9.43502 12.3131 9.57922 12.4888 9.66437 12.6944C9.74951 12.9 9.77179 13.1262 9.72838 13.3444C9.68498 13.5626 9.57783 13.7631 9.4205 13.9204C9.26316 14.0778 9.06271 14.1849 8.84448 14.2283C8.62625 14.2717 8.40005 14.2494 8.19448 14.1643C7.98891 14.0791 7.81321 13.935 7.6896 13.7499C7.56598 13.5649 7.5 13.3474 7.5 13.1249C7.5 12.8266 7.61853 12.5404 7.82951 12.3294C8.04048 12.1185 8.32663 11.9999 8.625 11.9999ZM8.625 15.7499C8.8475 15.7499 9.06501 15.8159 9.25002 15.9395C9.43502 16.0631 9.57922 16.2388 9.66437 16.4444C9.74951 16.65 9.77179 16.8762 9.72838 17.0944C9.68498 17.3126 9.57783 17.5131 9.4205 17.6704C9.26316 17.8278 9.06271 17.9349 8.84448 17.9783C8.62625 18.0217 8.40005 17.9994 8.19448 17.9143C7.98891 17.8291 7.81321 17.685 7.6896 17.4999C7.56598 17.3149 7.5 17.0974 7.5 16.8749C7.5 16.5766 7.61853 16.2904 7.82951 16.0794C8.04048 15.8685 8.32663 15.7499 8.625 15.7499ZM4.875 11.9999C5.0975 11.9999 5.31501 12.0659 5.50002 12.1895C5.68502 12.3131 5.82922 12.4888 5.91436 12.6944C5.99951 12.9 6.02179 13.1262 5.97838 13.3444C5.93498 13.5626 5.82783 13.7631 5.6705 13.9204C5.51316 14.0778 5.31271 14.1849 5.09448 14.2283C4.87625 14.2717 4.65005 14.2494 4.44448 14.1643C4.23891 14.0791 4.06321 13.935 3.9396 13.7499C3.81598 13.5649 3.75 13.3474 3.75 13.1249C3.75 12.8266 3.86853 12.5404 4.0795 12.3294C4.29048 12.1185 4.57663 11.9999 4.875 11.9999ZM4.875 15.7499C5.0975 15.7499 5.31501 15.8159 5.50002 15.9395C5.68502 16.0631 5.82922 16.2388 5.91436 16.4444C5.99951 16.65 6.02179 16.8762 5.97838 17.0944C5.93498 17.3126 5.82783 17.5131 5.6705 17.6704C5.51316 17.8278 5.31271 17.9349 5.09448 17.9783C4.87625 18.0217 4.65005 17.9994 4.44448 17.9143C4.23891 17.8291 4.06321 17.685 3.9396 17.4999C3.81598 17.3149 3.75 17.0974 3.75 16.8749C3.75 16.5766 3.86853 16.2904 4.0795 16.0794C4.29048 15.8685 4.57663 15.7499 4.875 15.7499Z" fill="black"/>
</svg>
