<svg width="37" height="31" viewBox="0 0 37 31" fill="none" xmlns="http://www.w3.org/2000/svg">
<path d="M18.5 0.00509129C8.2846 0.00509129 0 6.25821 0 13.9833C0.0363148 15.5951 0.398098 17.1829 1.06361 18.6514C1.72913 20.1198 2.68464 21.4385 3.87273 22.5283C3.90935 22.6148 3.95105 22.6931 3.98361 22.7837C4.24623 23.58 4.28738 24.4327 4.10263 25.2505C3.88714 26.2229 3.43697 27.1278 2.79138 27.8863C2.02968 28.767 1.07422 29.4592 0 29.9086C1.12359 30.3843 2.33217 30.6265 3.55229 30.6207H3.93477C5.46584 30.5524 6.96385 30.1525 8.32529 29.4488C9.55963 28.808 10.6726 27.9567 11.6141 26.9331C13.8482 27.6006 16.1683 27.9359 18.5 27.928C28.7153 27.928 36.9999 21.6748 36.9999 13.9497C36.9999 6.22464 28.7164 0 18.5 0V0.00509129ZM18.5 25.8802C16.3711 25.8855 14.2532 25.577 12.2143 24.9647L10.9814 24.5903L10.1136 25.5272C9.33816 26.3754 8.41988 27.0808 7.40059 27.6116C6.6236 28.0064 5.79223 28.2834 4.93374 28.4336C5.50801 27.5855 5.91412 26.6352 6.13003 25.634C6.38997 24.456 6.32456 23.2295 5.94082 22.0858C5.89746 21.9627 5.84789 21.8418 5.7923 21.7237V21.6871L5.63157 21.3127L5.33963 21.0289C4.34437 20.1338 3.54229 19.0451 2.98255 17.8292C2.42281 16.6133 2.11718 15.296 2.08437 13.9579C2.08437 7.38026 9.45954 2.03555 18.5285 2.03555C27.5974 2.03555 34.9725 7.38026 34.9725 13.9579C34.9725 20.5355 27.5638 25.8721 18.4928 25.8721L18.5 25.8802Z" fill="#070606"/>
<path d="M17.213 18.8703H19.6748V21.2913H17.213V18.8703Z" fill="#070606"/>
<path d="M22.1214 8.47788C21.106 7.64083 19.8142 7.21408 18.5 7.28158C17.2215 7.22238 15.9673 7.64491 14.9853 8.46568C14.1159 9.30505 13.5996 10.4446 13.5418 11.6517H15.9833C16.0915 10.9774 16.4211 10.3582 16.9201 9.89186C17.3959 9.50024 17.9981 9.29555 18.6139 9.31611C19.2204 9.28488 19.8164 9.48317 20.2832 9.87153C20.4747 10.0359 20.6278 10.2405 20.7315 10.4706C20.8352 10.7007 20.8871 10.9507 20.8834 11.2031C20.8858 11.5738 20.7629 11.9345 20.5345 12.2265C20.105 12.6742 19.6403 13.0869 19.1449 13.4604C18.521 13.92 17.9942 14.4984 17.5946 15.1623C17.3149 15.767 17.1824 16.4294 17.2081 17.0951V17.7279H19.621C19.5773 17.2119 19.6404 16.6925 19.8061 16.202C20.0794 15.7638 20.4336 15.3816 20.8498 15.0758C21.6537 14.4656 22.3689 13.7466 22.9749 12.9396C23.2979 12.4441 23.4706 11.8658 23.4724 11.2743C23.4683 10.7372 23.3448 10.2077 23.1108 9.72422C22.8767 9.24073 22.5381 8.81536 22.1194 8.47891L22.1214 8.47788Z" fill="#070606"/>
</svg>
