<svg width="23" height="16" viewBox="0 0 23 16" fill="none" xmlns="http://www.w3.org/2000/svg">
<path d="M3.1998 9.76132C3.55838 9.96912 3.79977 10.3566 3.79977 10.8003C3.79977 11.1355 3.66228 11.4386 3.44042 11.6565C3.39003 11.7057 3.33534 11.751 3.27675 11.7909C4.04546 12.6557 4.36692 13.8361 4.36692 14.8094C4.36692 15.4375 3.95249 15.7672 3.52557 15.8774C3.26074 15.9461 2.9424 16 2.59984 16C2.25728 16 1.93894 15.9461 1.67412 15.8774C1.45304 15.8203 1.23586 15.7047 1.07728 15.5196C0.92924 15.3461 0.832762 15.1126 0.832762 14.8094C0.832762 13.8361 1.15462 12.6565 1.92332 11.7917C1.60732 11.5753 1.39991 11.212 1.39991 10.8003C1.39991 10.3566 1.64131 9.96912 1.99988 9.76132V9.14182C1.99988 8.1372 2.00457 6.7326 2.97404 5.82718L0.37693 4.89912C0.127336 4.81084 0 4.63038 0 4.36477V4.31556C0 4.05073 0.127336 3.86949 0.37693 3.78121L10.6888 0.0978456C11.0544 -0.0326152 11.345 -0.0326152 11.7106 0.0978456L22.0225 3.78121C22.1186 3.81559 22.1967 3.86402 22.2561 3.92574C22.3506 4.02339 22.3986 4.15385 22.3986 4.31634V4.36555C22.3986 4.63116 22.2713 4.81162 22.0217 4.8999L11.7098 8.58327C11.5266 8.64811 11.3306 8.66217 11.1985 8.66217C11.1603 8.66217 11.1165 8.66139 11.0692 8.65826C10.9536 8.64967 10.8173 8.62936 10.6872 8.58327L5.59966 6.76463L11.3337 4.71709C11.5419 4.64288 11.6505 4.41399 11.5762 4.20541C11.5016 3.99761 11.2763 3.88902 11.0657 3.96323L4.41184 6.33965C3.28613 6.74353 3.1998 7.75519 3.1998 9.14182V9.76132Z" fill="white"/>
<path d="M11.1993 9.46134C11.3954 9.46134 11.6887 9.43946 11.9793 9.33634L17.5989 7.32944V10.341C17.5989 12.551 14.7335 13.5408 11.1993 13.5408C7.66516 13.5408 4.79971 12.551 4.79971 10.341V7.32944L5.33092 7.52005L10.4193 9.33634C10.7107 9.43946 11.0032 9.46134 11.1993 9.46134Z" fill="white"/>
</svg>
