<svg width="13" height="16" viewBox="0 0 13 16" fill="none" xmlns="http://www.w3.org/2000/svg">
<path d="M6.60341 6.30917H7.43078V6.5783H6.34881V5.0641H6.60341V6.30917Z" fill="white"/>
<path fill-rule="evenodd" clip-rule="evenodd" d="M12.3476 15.3103H12.8727C12.9363 15.3103 12.9681 15.3439 13 15.4111V15.8991C13 15.9496 12.9522 16 12.9045 16H0.0954865C0.067905 16 0.0404011 15.9832 0.0220652 15.9594C0.0085464 15.9418 0 15.9205 0 15.8991V15.4111C0 15.3914 0.00730328 15.3717 0.0191128 15.355C0.0374487 15.329 0.0664288 15.3103 0.0954865 15.3103H0.620546V14.7718C0.620546 14.7475 0.631656 14.7232 0.648516 14.7045C0.666619 14.6844 0.691326 14.671 0.716033 14.671H1.24109V8.61416C1.24109 8.44591 1.36843 8.29443 1.54348 8.29443H3.72335V6.6289H3.30963C2.97554 6.6289 2.81643 6.19137 3.0551 5.95593L6.23747 2.80972C6.25332 2.77604 6.28517 2.75928 6.31703 2.74235V0.117804C6.31703 0.0504405 6.36473 0 6.42837 0H6.52385C6.58748 0 6.63527 0.0504405 6.63527 0.117804V0.302808H8.01955C8.11504 0.302808 8.19459 0.38693 8.19459 0.487975V1.43008C8.19459 1.47132 8.18131 1.50977 8.15901 1.54082C8.12684 1.58584 8.07596 1.61508 8.01955 1.61508H6.63527V2.74235L6.63643 2.74285C6.66782 2.75961 6.69929 2.77637 6.73067 2.80972L9.91304 5.95593C10.1517 6.19137 9.9926 6.6289 9.65851 6.6289H9.24479V8.29443H11.4247C11.5838 8.29443 11.7271 8.42899 11.7271 8.61416V14.671H12.2521C12.2998 14.671 12.3476 14.7214 12.3476 14.7718V15.3103ZM2.32314 13.5941H3.56424V12.1136H2.32314V13.5941ZM2.32314 10.9191H3.56424V9.43846H2.32314V10.9191ZM5.91923 9.43846H4.67806V10.9191H5.91923V9.43846ZM4.67806 12.1136V15.3103H6.26925V12.1136H4.67806ZM6.34881 8.15987V7.80662H6.60341V8.15987C6.96935 8.14311 7.28759 7.99162 7.54219 7.75601L7.30352 7.50365L7.47856 7.31864L7.71724 7.57101C7.92406 7.30188 8.06733 6.94847 8.09911 6.5783H7.76494V6.30917H8.09911C8.08318 5.92224 7.93999 5.58575 7.71724 5.31646L7.47856 5.56883L7.30352 5.38383L7.54219 5.13146C7.25581 4.86234 6.87394 4.71085 6.47615 4.71085C6.06242 4.71085 5.69641 4.87909 5.41002 5.13146L5.6487 5.38383L5.47366 5.56883L5.23498 5.31646C5.02815 5.58575 4.88496 5.939 4.85311 6.30917H5.18727V6.5783H4.85311C4.86904 6.96539 5.01223 7.30188 5.23498 7.57101L5.47366 7.31864L5.6487 7.50365L5.41002 7.75601C5.66463 7.97486 5.99879 8.12618 6.34881 8.15987ZM8.27415 10.9191V9.43846H7.03306V10.9191H8.27415ZM6.68297 12.1136V15.3103H8.27415V12.1136H6.68297ZM9.38798 13.5941H10.6291V12.1136H9.38798V13.5941ZM9.38798 10.9191H10.6291V9.43846H9.38798V10.9191Z" fill="white"/>
</svg>
