<svg width="28" height="22" viewBox="0 0 28 22" fill="none" xmlns="http://www.w3.org/2000/svg">
<path fill-rule="evenodd" clip-rule="evenodd" d="M1.91599 9.48643C9.43119 6.39243 14.4413 4.34341 16.9464 3.33937C24.0968 0.504883 25.5998 0.0211191 26.5666 0.000332817C26.926 -0.00654141 27.2787 0.0932232 27.5753 0.285673C27.7783 0.460259 27.9078 0.698511 27.9401 0.956509C28.0006 1.27185 28.0154 1.59354 27.984 1.91267C27.5972 5.7808 25.9228 15.1649 25.0636 19.4865C24.6988 21.3176 23.9892 21.9298 23.3034 21.9903C21.8004 22.1131 20.6621 21.0455 19.2229 20.1592C16.9464 18.7552 15.6806 17.8803 13.4679 16.4952C10.9123 14.9079 12.5668 14.0386 14.026 12.6081C14.4128 12.2416 21.003 6.54233 21.1346 6.03402C21.1505 5.9582 21.1471 5.87986 21.1246 5.80555C21.102 5.73125 21.061 5.66315 21.005 5.60696C20.9253 5.5608 20.8352 5.53299 20.7421 5.52578C20.649 5.51856 20.5554 5.53212 20.4688 5.56538C20.2335 5.60695 16.6254 7.88588 9.60262 12.3852C8.80369 12.9806 7.82726 13.3224 6.81184 13.3621C5.44268 13.2057 4.09614 12.9052 2.79708 12.4664C1.1864 11.977 -0.101354 11.7106 0.00629096 10.8583C0.068087 10.3935 0.711963 9.95318 1.91599 9.48643Z" fill="white"/>
</svg>
