<svg width="299" height="214" viewBox="0 0 299 214" fill="none" xmlns="http://www.w3.org/2000/svg">
<path d="M298.753 94.6582C298.753 107.875 288.64 118.588 276.164 118.588C263.688 118.588 253.575 107.875 253.575 94.6582C253.575 81.4416 263.688 70.728 276.164 70.728C288.64 70.728 298.753 81.4416 298.753 94.6582Z" fill="#FDD089"/>
<path d="M282.066 134.945C282.066 174.5 248.469 206.567 207.025 206.567C165.58 206.567 131.983 174.5 131.983 134.945C131.983 95.3906 165.58 63.3254 207.025 63.3254C248.469 63.3254 282.066 95.3906 282.066 134.945Z" fill="#FDD089"/>
<path d="M218.376 202.251C218.376 202.251 242.887 190.166 247.103 183.863C251.318 177.559 245.122 177.202 245.122 177.202C245.122 177.202 256.06 166.564 254.52 162.085C252.982 157.607 247.239 161.885 247.239 161.885C247.239 161.885 254.349 146.058 251.032 144.484C244.855 141.552 236.19 158.397 236.19 158.397C236.19 158.397 238.053 151.079 233.799 151.318C227.384 151.676 227.65 168.229 227.65 168.229C227.65 168.229 226.925 161.883 223.058 163.944C216.122 167.643 218.376 202.251 218.376 202.251Z" fill="#355389"/>
<path d="M222.458 161.408C226.654 160.146 227.627 164.792 227.627 164.792C227.627 164.792 227.384 151.676 233.799 151.318C238.053 151.079 236.19 158.397 236.19 158.397C236.19 158.397 244.855 141.552 251.032 144.484L218.348 201.983C218.117 197.967 216.422 163.223 222.458 161.408Z" fill="#466EB6"/>
<path d="M219.009 202.401C219.009 202.401 239.056 204.891 244.247 202.672C249.438 200.454 245.718 197.713 245.718 197.713C245.718 197.713 256.863 195.522 257.723 192.103C258.583 188.684 253.262 189.02 253.262 189.02C253.262 189.02 264.128 182.036 262.699 179.708C260.038 175.369 247.788 182.356 247.788 182.356C247.788 182.356 251.924 178.547 249.173 176.967C245.027 174.584 238.466 185.018 238.466 185.018C238.466 185.018 238.873 182.445 235.623 182.161C229.794 181.649 219.009 202.401 219.009 202.401Z" fill="#355389"/>
<path d="M235.338 181.479C238.588 181.764 238.466 185.018 238.466 185.018C238.466 185.018 245.027 174.584 249.173 176.967C251.924 178.547 247.788 182.356 247.788 182.356C247.788 182.356 260.038 175.369 262.699 179.708L218.949 202.291C220.436 199.692 229.894 181.001 235.338 181.479Z" fill="#13375B"/>
<path d="M257.501 203.535C257.501 203.071 257.253 202.693 256.948 202.693H4.42692C4.04975 202.693 3.74441 203.071 3.74441 203.535C3.74441 203.999 4.04975 204.377 4.42692 204.377H256.948C257.253 204.377 257.501 203.999 257.501 203.535Z" fill="#184655"/>
<path d="M57.9461 202.305C57.9461 202.305 25.9951 186.551 20.4991 178.335C15.0044 170.118 23.0829 169.652 23.0829 169.652C23.0829 169.652 8.82333 155.785 10.8298 149.947C12.8363 144.109 20.3221 149.687 20.3221 149.687C20.3221 149.687 11.0543 129.054 15.3765 127.003C23.4293 123.181 34.7241 145.14 34.7241 145.14C34.7241 145.14 32.2968 135.601 37.8416 135.912C46.2036 136.378 45.8572 157.957 45.8572 157.957C45.8572 157.957 46.8027 149.684 51.842 152.37C60.8853 157.192 57.9461 202.305 57.9461 202.305Z" fill="#355389"/>
<path d="M53.552 150.11C49.144 147.504 45.7802 153.635 45.7802 153.635C45.7802 153.635 46.2035 136.379 37.8415 135.912C32.2967 135.601 34.724 145.14 34.724 145.14C34.724 145.14 23.4292 123.181 15.3764 127.003L57.982 201.955C58.2834 196.72 59.4098 153.571 53.552 150.11Z" fill="#466EB6"/>
<path d="M57.12 202.501C57.12 202.501 30.9883 205.747 24.2222 202.854C17.4561 199.961 22.3055 196.39 22.3055 196.39C22.3055 196.39 7.77654 193.534 6.65527 189.077C5.53529 184.621 12.4707 185.059 12.4707 185.059C12.4707 185.059 -1.69394 175.955 0.16885 172.919C3.63785 167.264 19.6063 176.37 19.6063 176.37C19.6063 176.37 14.2155 171.406 17.7999 169.346C23.2061 166.24 31.758 179.84 31.758 179.84C31.758 179.84 31.2269 176.488 35.4631 176.116C43.0618 175.45 57.12 202.501 57.12 202.501Z" fill="#355389"/>
<path d="M35.444 173.854C31.2091 174.226 31.7582 179.84 31.7582 179.84C31.7582 179.84 24.1864 165.334 17.777 169.14C14.222 171.251 19.1522 176.177 19.1522 176.177C19.1522 176.177 3.63797 167.263 0.168969 172.919L57.1996 202.356C55.2611 198.969 42.5423 173.232 35.444 173.854Z" fill="#13375B"/>
<path d="M199.389 177.891H61.1881C55.9102 177.891 51.6304 174.165 51.6304 169.569V164.619C51.6304 160.023 55.9102 156.297 61.1881 156.297H199.389C193.067 162.314 192.958 171.51 199.135 177.64L199.389 177.891Z" fill="#50BFA5"/>
<path d="M197.453 158.772H127.907C123.118 158.772 119.236 162.497 119.236 167.094C119.236 171.691 123.118 175.416 127.907 175.416H197.458C194.208 170.312 194.215 163.864 197.453 158.772Z" fill="#FAE0B2"/>
<path d="M229.67 176.753H55.5726C50.1651 176.753 45.7827 180.878 45.7827 185.966V193.713C45.7827 198.801 50.1651 202.926 55.5726 202.926H229.67L229.579 202.836C222.132 195.541 222.172 184.003 229.67 176.753Z" fill="#B75742"/>
<path d="M226.589 180.627H133.519C128.112 180.627 123.73 184.752 123.73 189.84C123.73 194.927 128.112 199.051 133.519 199.051H226.588C223.166 193.347 223.171 186.327 226.589 180.627Z" fill="#FAE0B2"/>
<path d="M172.925 189.888H165.821C164.295 189.888 163.057 191.126 163.057 192.654V192.901H172.925V189.888Z" fill="#13375B"/>
<path d="M166.113 189.898C167.81 189.897 170.345 191.333 171.775 193.106L188.621 214L198.516 213.994L182.494 194.124C180.609 191.785 177.266 189.891 175.029 189.893L166.113 189.898Z" fill="#355389"/>
<path d="M54.2989 46.8989C54.2515 47.0452 54.127 47.1504 53.9756 47.1735C53.8243 47.1953 53.6729 47.1299 53.5856 47.0041L51.923 44.5987L48.9979 44.6051C48.8453 44.6051 48.7054 44.5191 48.6374 44.3819C48.5694 44.2446 48.5848 44.0817 48.6772 43.9598L50.4515 41.6339L49.5419 38.8551C49.4931 38.7088 49.5329 38.5497 49.642 38.4432C49.751 38.3355 49.9114 38.2996 50.0563 38.3509L52.8159 39.3195L55.1777 37.594C55.3022 37.5042 55.4664 37.4926 55.6011 37.5632C55.7371 37.6337 55.8205 37.7761 55.8166 37.9288L55.7486 40.8526L58.1182 42.5665C58.2426 42.6563 58.3055 42.8077 58.2798 42.9591C58.2542 43.1092 58.1451 43.2324 57.9989 43.2773L55.197 44.115L54.2989 46.8989Z" fill="#F47458"/>
<path d="M157.676 15.1353C158.033 13.8537 159.183 13.1827 160.442 13.5317C161.748 13.8948 162.341 15.0494 162.008 16.3387C161.659 17.5972 160.525 18.299 159.218 17.9359C157.936 17.5805 157.327 16.3952 157.676 15.1353ZM159.232 11.9704C159.428 11.4675 159.36 9.66498 161.866 7.93177C162.895 7.22616 163.739 6.62704 163.967 5.80341C164.362 4.3845 162.868 3.70326 161.38 3.70968C160.61 3.71353 159.98 3.09646 159.956 2.32671C159.931 1.54542 160.538 0.889847 161.319 0.85136C162.173 0.810307 163.178 0.892408 164.233 1.1862C167.427 2.07269 168.39 4.24211 167.831 6.25115C167.321 8.09085 165.848 8.98502 164.646 9.74579C162.623 11.0313 162.624 12.463 162.451 12.8646L159.232 11.9704Z" fill="#F7CC7F"/>
<path d="M239.965 44.5987L241.153 46.5731C241.282 46.7873 241.6 46.7604 241.691 46.5282L242.536 44.3844L244.781 43.8635C245.023 43.8071 245.096 43.4966 244.904 43.3376L243.126 41.8725L243.325 39.5773C243.346 39.3285 243.073 39.163 242.863 39.2964L240.919 40.5357L238.797 39.6363C238.568 39.5388 238.326 39.748 238.388 39.9891L238.965 42.2201L237.455 43.9611C237.292 44.1496 237.416 44.4434 237.664 44.4588L239.965 44.5987Z" fill="#F79C8D"/>
<path d="M185.881 15.2046L183.28 13.3586L184.001 10.1769L184.848 10.3681L184.254 12.9865L186.942 14.8955L185.558 18.3132L188.59 19.9501L187.211 22.9663L186.173 23.1485L187.464 20.3273L184.462 18.707L185.881 15.2046Z" fill="#F48C7F"/>
<path d="M66.1338 28.4801L67.7438 29.8978L69.7465 29.0202L71.4373 30.7355L73.2822 29.1434L75.281 30.9998L77.1604 29.7425L79.376 31.214L78.8192 32.0531L77.163 30.9523L75.1796 32.2788L73.2578 30.4943L71.3822 32.1134L69.5155 30.2198L67.5591 31.0768L66.0684 29.7631L64.9009 30.5944L64.3172 29.7746L66.1338 28.4801Z" fill="#F7CC7F"/>
<path d="M247.826 58.5377C250.048 60.6699 250.123 64.1992 247.99 66.4212C245.859 68.6432 242.33 68.7163 240.108 66.5854C237.886 64.4545 237.813 60.9252 239.944 58.7019C242.075 56.4799 245.604 56.4068 247.826 58.5377Z" fill="#FFF3D9"/>
<path d="M247.705 63.1983L245.333 63.9283L244.589 66.2953C244.528 66.4864 244.275 66.5262 244.16 66.362L242.733 64.3312L240.252 64.3555C240.051 64.3568 239.935 64.1285 240.056 63.9681L241.547 61.9834L240.758 59.6306C240.694 59.4407 240.876 59.2598 241.064 59.3252L243.412 60.1296L245.406 58.6517C245.567 58.5324 245.796 58.6491 245.792 58.8493L245.753 61.3317L247.774 62.7711C247.938 62.8866 247.897 63.1393 247.705 63.1983Z" fill="#FED333"/>
<path d="M83.8881 11.4343C80.7642 13.2047 81.38 17.9336 84.8631 18.8701C85.4892 19.0382 86.0267 19.4397 86.3898 19.976L87.6406 21.8208C87.9844 22.3301 88.6618 22.4892 89.1968 22.1864L90.3809 21.5154C90.9146 21.2127 91.1276 20.5494 90.8684 19.9926C89.9229 17.9605 89.4264 17.2793 89.7638 16.0939C90.753 12.6261 87.0146 9.6639 83.8881 11.4343Z" fill="#F7CC7F"/>
<path d="M86.8606 13.673C86.8439 13.9488 86.9953 14.24 87.148 14.5813C87.3635 14.326 87.6085 14.0168 87.6073 13.6948C87.606 13.469 87.4213 13.2176 87.1993 13.2394C87.1749 13.2419 86.8722 13.478 86.8606 13.673ZM84.2499 16.0939C84.4872 16.2145 84.8003 16.1901 85.2082 16.0182C85.0235 15.7398 84.8169 15.5037 84.5347 15.3857C83.8996 15.1201 83.8535 15.8912 84.2499 16.0939ZM87.4905 20.1851C86.6143 18.4685 85.6124 16.684 85.3122 16.1849C83.4442 16.9906 83.4301 14.7147 84.6091 15.2087C84.9465 15.3485 85.1813 15.6205 85.3865 15.9386C85.9985 15.6487 86.5514 15.2407 87.0082 14.7417C86.8144 14.3093 86.6477 13.9899 86.6669 13.6615C86.6964 13.1637 87.1968 12.8481 87.5701 13.1842C87.7112 13.3099 87.7997 13.5049 87.7997 13.6935C87.8023 14.0951 87.5034 14.4697 87.2352 14.7763C87.8613 16.1683 88.5284 17.5551 89.225 18.9086L89.0531 18.9971C88.368 17.6667 87.7099 16.3017 87.0941 14.9328C86.6361 15.4165 86.0909 15.8155 85.4892 16.1041C85.8715 16.743 86.8401 18.4852 87.6624 20.0978L87.4905 20.1851Z" fill="white"/>
<path d="M86.3562 19.931C86.3677 19.9464 86.3793 19.9606 86.3896 19.976L87.6404 21.8208C87.9842 22.3301 88.6616 22.4892 89.1966 22.1864L90.3807 21.5154C90.9144 21.2127 91.1274 20.5494 90.8682 19.9926C90.4474 19.0895 90.1164 18.4519 89.9073 17.9194L86.3562 19.931Z" fill="#96D9C9"/>
<path d="M80.8653 10.8249L79.2027 9.37392C79.0423 9.23409 79.0257 8.99033 79.1668 8.82869C79.3066 8.66832 79.5504 8.65166 79.712 8.7915L81.3734 10.2425C81.5338 10.3823 81.5504 10.6261 81.4106 10.7877C81.2695 10.9494 81.0257 10.9648 80.8653 10.8249Z" fill="#FAE0B2"/>
<path d="M80.3062 16.0155L78.0675 16.6236C77.8622 16.6787 77.6493 16.5568 77.5941 16.3516C77.5377 16.145 77.6595 15.9333 77.8661 15.8769L80.1035 15.2701C80.3088 15.2136 80.5217 15.3355 80.5782 15.5408C80.6333 15.7473 80.5127 15.959 80.3062 16.0155Z" fill="#FAE0B2"/>
<path d="M80.5998 23.4526C80.4061 23.3628 80.3227 23.1319 80.4138 22.9395C80.7538 22.2159 81.1643 21.5232 81.6338 20.8779C81.7596 20.7047 82.0007 20.6674 82.1739 20.7932C82.3458 20.9189 82.3843 21.1601 82.2586 21.3333C81.8173 21.9388 81.4324 22.5893 81.113 23.2679C81.0232 23.4604 80.7935 23.545 80.5998 23.4526Z" fill="#FAE0B2"/>
<path d="M86.1855 8.75655C85.9738 8.7758 85.7852 8.61929 85.7659 8.40761C85.6736 7.39796 85.476 6.39472 85.1771 5.42612C85.1155 5.22213 85.2284 5.00533 85.4337 4.94247C85.6377 4.8796 85.8532 4.99376 85.916 5.19775C86.2304 6.21766 86.4382 7.2748 86.5357 8.33705C86.5549 8.55002 86.3971 8.73731 86.1855 8.75655Z" fill="#FAE0B2"/>
<path d="M89.4441 10.7233C89.3159 10.5527 89.3492 10.3102 89.5198 10.1819L91.525 8.67451C91.6957 8.54622 91.9368 8.57958 92.0651 8.75021C92.1934 8.92084 92.1601 9.16332 91.9895 9.29161L89.9855 10.8003C89.8149 10.9273 89.5724 10.894 89.4441 10.7233Z" fill="#FAE0B2"/>
<path d="M95.3507 15.3601C95.3187 15.3716 95.284 15.3793 95.2481 15.3832C94.386 15.4499 93.5149 15.4255 92.6579 15.3075C92.4462 15.2792 92.2987 15.0842 92.3282 14.8726C92.3564 14.6609 92.5514 14.5133 92.7631 14.5416C93.5649 14.6519 94.3808 14.675 95.1878 14.6121C95.4007 14.5954 95.5868 14.7545 95.6034 14.9675C95.6163 15.1432 95.5098 15.3023 95.3507 15.3601Z" fill="#FAE0B2"/>
<path d="M213.106 14.3774L212.115 16.2081C209.773 20.5379 206.61 24.4726 202.788 27.8146L202.369 28.1815C202.369 28.1815 203.178 31.875 206.895 31.2272C209.776 26.8268 213.099 22.8972 217.036 19.2679L218.49 18.0837L213.106 14.3774Z" fill="#466EB6"/>
<path d="M218.494 18.0785C218.273 18.344 216.894 17.7282 215.412 16.7044C213.931 15.6807 212.894 14.6325 213.113 14.3683C213.334 14.1027 214.727 14.7198 216.209 15.7448C217.691 16.7686 218.713 17.8142 218.494 18.0785Z" fill="#86B1F2"/>
<path d="M218.485 18.0873L218.488 18.0809C218.488 18.0809 215.075 16.1732 214.454 15.1327L214.047 15.6472C214.423 15.9794 214.89 16.3438 215.412 16.7043C216.877 17.7165 218.241 18.3298 218.485 18.0873Z" fill="#355389"/>
<path d="M212.305 24.1056C211.87 24.2519 209.935 24.7086 208.225 22.1068C208.006 22.3852 207.781 22.6611 207.553 22.9356C208.724 24.5534 210.007 25.037 210.9 25.1525C211.043 25.1704 211.23 25.1871 211.372 25.1923C211.679 24.8266 211.989 24.4648 212.305 24.1056Z" fill="#B75742"/>
<path d="M208.866 22.1823L207.673 17.9243L207.067 19.2214L205.688 19.0084L208.087 22.6275L208.866 22.1823Z" fill="#B75742"/>
<path d="M207.916 22.9126L204.577 22.3417L205.356 23.25L204.578 23.9479L207.81 23.6798L207.916 22.9126Z" fill="#B75742"/>
<path d="M207.326 23.7322C207.03 23.0125 207.453 22.167 208.27 21.8437C209.089 21.5204 209.992 21.8412 210.287 22.5609C210.584 23.2806 210.16 24.1261 209.343 24.4506C208.524 24.7739 207.621 24.4532 207.326 23.7322Z" fill="#F47458"/>
<path d="M209.404 73.0475C206.29 71.3669 202.532 72.0455 200.401 74.8166C198.519 74.2444 196.402 74.4728 194.723 75.4452C191.412 77.3632 189.385 82.7245 192.076 85.6316C192.734 88.6246 193.244 91.7126 196.222 91.746C197.985 94.9763 204.155 95.1893 207.318 92.1539C210.084 93.0237 213.038 91.438 214.956 89.2391C215.407 88.7196 215.789 87.9036 215.961 87.7946C215.964 87.7933 223.091 86.4732 222.434 79.5685C221.746 72.3419 214.228 67.3667 209.404 73.0475Z" fill="#F47458"/>
<path d="M182.294 159.512C182.462 162.638 183.054 165.448 183.142 165.782C183.184 165.941 183.696 166.574 183.743 166.739C182.977 170.422 180.435 172.333 178.11 173.628C178.802 171.811 180.095 169.792 180.014 169.357C179.883 168.664 179.429 165.519 178.14 161.468C179.941 161.494 180.711 160.451 182.294 159.512Z" fill="#F7A491"/>
<path d="M190.929 114.587L202.024 123.544C202.024 123.544 196.447 129.057 194.356 131.107C192.263 133.156 181.737 140.543 181.552 141.015C181.515 141.11 182.072 142.234 182.245 143.633C182.712 147.419 183.315 158.066 183.48 164.381C182.289 165.631 180.215 166.492 178.673 166.887C174.866 159.133 172.894 140.399 172.908 138.609C172.932 135.696 190.929 114.587 190.929 114.587Z" fill="#B75742"/>
<path d="M223.279 134.063C222.844 134.341 219.438 138.599 217.981 140.965C216.852 139.787 216.278 138.567 214.932 137.637C216.473 136.155 219.652 132.462 220.055 131.501C221.013 129.219 221.607 128.989 221.607 128.989C221.607 128.989 228.675 133.497 229.021 134.376C229.367 135.253 225.025 132.942 223.279 134.063Z" fill="#F7A491"/>
<path d="M219.851 132.009C219.257 131.87 220.509 129.217 220.785 128.604C221.096 127.913 221.546 127.791 221.651 127.788C221.937 127.782 229.792 132.792 230.996 134.21C231.077 134.307 231.202 134.579 231.218 134.638C231.673 136.357 224.598 134.998 223.733 134.09C222.965 133.282 222.523 132.63 219.851 132.009Z" fill="#184655"/>
<path d="M188.521 117.185L198.305 113.15C198.265 113.167 198.36 113.565 198.368 113.595C199.251 117.324 201.254 115.606 203.213 122.083C204.597 126.659 204.096 143.104 204.096 143.104C204.096 143.104 212.567 137.878 217.353 134.322C217.79 133.998 220.461 138.261 220.461 138.261C213.954 149.198 200.569 154.406 199.29 153.903C194.928 152.187 191.196 122.574 191.208 122.577C190.365 120.823 188.521 117.185 188.521 117.185Z" fill="#B75742"/>
<path d="M204.346 92.4989C204.346 92.4989 216.34 90.0819 219.008 89.7073C221.678 89.3326 230.988 86.3345 231.346 86.2062C231.704 86.0779 233.151 81.2144 233.662 81.5838C234.172 81.9546 232.796 84.0291 233.44 84.3383C234.082 84.6487 239.702 82.3408 239.729 82.809C239.776 83.6865 236.343 84.3588 236.439 84.7655C236.537 85.1722 239.954 83.7212 240.351 84.3434C240.747 84.9643 236.986 85.4031 236.909 85.7379C236.832 86.074 240.507 85.8149 240.289 86.5282C240.17 86.9144 237.013 86.6757 237.133 87.1389C237.254 87.602 239.648 88.1703 239.469 88.6014C239.29 89.0324 237.521 87.8483 236.269 88.1152C235.015 88.382 233.966 87.906 232.104 88.9324C230.243 89.9587 224.107 94.3745 219.807 95.1353C215.508 95.8973 206.015 97.6074 206.015 97.6074L204.346 92.4989Z" fill="#F7A491"/>
<path d="M182.357 70.0927C181.612 67.5679 181.011 65.3742 180.968 65.1997C180.88 64.8302 184.151 60.9519 183.563 60.7274C182.974 60.5042 181.994 62.7929 181.382 62.4247C180.77 62.0565 179.618 56.0923 179.212 56.327C178.451 56.7684 179.773 60.0077 179.379 60.1501C178.986 60.2925 178.324 56.6375 177.587 56.6478C176.85 56.6567 178.546 60.0424 178.309 60.2912C178.07 60.5401 176.27 57.3239 175.794 57.8986C175.537 58.2104 177.467 60.7185 177.015 60.8711C176.562 61.0238 174.773 59.3342 174.51 59.7203C174.247 60.1078 176.209 60.9366 176.673 62.1309C177.136 63.3241 178.11 63.9411 178.273 66.0605C178.339 66.9124 178.324 68.643 178.398 70.6675C179.738 70.5802 181.067 70.4429 182.357 70.0927Z" fill="#F7A491"/>
<path d="M183.159 165.877C183.452 165.32 185.479 167.487 185.966 167.937C186.512 168.442 186.497 168.927 186.469 169.035C186.395 169.316 179.756 175.94 177.954 176.738C177.783 176.813 177.45 176.772 177.356 176.72C176.47 176.221 178.725 170.38 180.095 169.348C180.98 168.682 181.832 168.381 183.159 165.877Z" fill="#184655"/>
<path d="M176.572 68.8843C176.944 71.93 177.315 74.9756 177.729 78.0148C178.214 81.58 179.887 84.8463 181.604 87.9587C182.068 88.8003 186.103 94.5631 185.677 95.3457C185.677 95.3457 184.403 97.6857 184.73 99.4202C186.855 110.712 182.71 119.675 176.59 128.813C174.883 131.364 173.27 134.033 172.23 136.935C171.199 139.808 171.24 142.615 170.999 145.586C170.658 149.804 170.353 154.025 170.032 158.243C170.032 158.243 179.383 161.757 184.049 158.182C188.716 154.605 195.813 159.008 199.656 159.688C203.498 160.369 212.906 155.282 214.734 150.399C216.539 145.579 215.183 135.013 215.148 134.744C215.211 135.228 207.071 137.793 206.215 136.226C205.646 135.181 206.55 131.768 206.559 130.504C206.573 128.326 206.441 126.147 206.165 123.985C205.59 119.489 203.909 115.412 202.894 111.081C202.218 108.189 200.52 104.184 201.384 101.203C201.86 99.5614 214.833 97.7396 220.946 96.1475C227.057 94.5542 231.699 90.785 231.699 90.785L229.541 85.6353C229.541 85.6353 220.267 88.7297 215.497 89.257C210.726 89.7843 200.332 92.8889 193.671 90.9184C187.01 88.9478 183.579 76.3599 183.579 76.3599L181.565 67.0434L176.572 68.8843Z" fill="#355389"/>
<path d="M197.592 87.4034C197.592 87.4034 196.946 90.7402 197.059 92.059C197.172 93.3792 196.541 97.6218 193.871 97.6141C191.2 97.6051 193.409 92.2079 193.671 90.9185C193.933 89.6292 194.026 85.6304 194.026 85.6304L197.592 87.4034Z" fill="#F7A491"/>
<path d="M196.788 94.4594C196.194 94.7172 195.541 94.8622 194.883 94.7532C193.904 94.5915 193.351 93.8769 193.039 93.1277C192.492 95.1265 192.061 97.6076 193.871 97.6141C195.518 97.6192 196.389 96.0053 196.788 94.4594Z" fill="white"/>
<path d="M193.954 87.6366C194.004 86.5423 194.026 85.6302 194.026 85.6302L197.591 87.4031C197.591 87.4031 197.459 88.0857 197.326 88.9555C195.755 89.2711 194.625 88.6553 193.954 87.6366Z" fill="#F47458"/>
<path d="M198.977 78.1904C198.977 78.1904 200.351 79.0025 200.84 80.7409C201.33 82.4779 200.719 86.9463 197.146 87.997C193.573 89.0465 192.058 85.4915 192.815 82.7281C193.572 79.9647 195.199 76.4701 198.977 78.1904Z" fill="#F7A491"/>
<path d="M192.379 81.6506C192.442 82.396 192.831 82.9669 193.245 82.9284C193.661 82.8886 193.945 82.2536 193.881 81.5095C193.818 80.7654 193.43 80.1932 193.015 80.2317C192.6 80.2715 192.315 80.9065 192.379 81.6506Z" fill="#F7A491"/>
<path d="M198.561 77.9624C198.561 77.9624 199.165 82.958 200.702 83.8715C202.239 84.7836 201.575 86.9928 201.575 86.9928C201.575 86.9928 203.017 81.8637 201.811 80.2023C200.604 78.5422 198.561 77.9624 198.561 77.9624Z" fill="#F47458"/>
<path d="M199.782 84.5794C199.358 85.226 199.353 85.9932 199.771 86.2921C200.189 86.591 200.872 86.31 201.296 85.6634C201.72 85.0156 201.725 84.2497 201.307 83.9508C200.888 83.6506 200.206 83.9328 199.782 84.5794Z" fill="#F7A491"/>
<path d="M78.5817 71.0192C78.5817 71.0192 76.107 67.6477 76.5509 66.6932C76.9948 65.7388 76.4239 64.0851 76.4239 64.0851L74.5842 62.9407L70.9599 66.4187V66.4983C70.9599 66.4983 73.1832 69.6632 73.5437 69.7427C73.6861 69.7748 73.9068 69.8248 74.1223 69.8749L76.488 73.0963L78.5817 71.0192Z" fill="#F79C8D"/>
<path d="M101.376 47.3404L93.2581 55.6472C92.9464 55.9667 92.9759 56.3259 93.3236 56.4491L103.164 59.9437C103.512 60.0669 104.047 59.9091 104.359 59.5897L112.477 51.2815C112.789 50.9621 112.76 50.6041 112.412 50.4797L102.572 46.9863C102.223 46.8619 101.688 47.0209 101.376 47.3404Z" fill="#355389"/>
<path d="M119.118 62.3018L112.988 51.6536C112.759 51.2572 112.895 50.7492 113.291 50.5195L124.118 44.2512C124.514 44.0228 125.019 44.1588 125.249 44.5553L131.38 55.2034C131.609 55.6012 131.473 56.1092 131.076 56.3375L120.25 62.6059C119.853 62.8355 119.348 62.6995 119.118 62.3018Z" fill="#355389"/>
<path d="M117.703 58.8827C117.703 58.8827 116.921 55.5484 117.399 53.7908C117.869 52.0666 118.709 51.0543 118.936 50.8696C119.961 50.0357 121.185 49.4417 122.496 49.2441C125.485 48.7938 129.732 50.9953 129.788 54.5977L128.445 56.0333L117.703 58.8827Z" fill="#13375B"/>
<path d="M99.963 56.8955C98.7237 58.4183 89.47 59.3651 86.7297 60.5954C80.1291 63.559 83.8098 74.905 88.0986 75.6017C89.5495 75.8364 93.3033 74.7511 94.0333 75.1616C96.2374 76.4009 99.0842 76.7986 101.976 74.7691C104.869 72.7408 103.432 71.0858 104.367 69.3975C105.302 67.7105 107.406 69.7721 108.541 66.1299C109.767 62.1888 109.798 58.0052 108.682 55.737C106.837 51.9832 103.703 51.6317 102.012 52.3643C101.508 52.5823 100.234 56.5632 99.963 56.8955Z" fill="#B75742"/>
<path d="M118.963 66.6445L114.128 66.7523L106.834 66.2289L101.6 65.8658L100.019 70.0904L115.757 77.4197L118.963 66.6445Z" fill="#13375B"/>
<path d="M129.371 71.3412C129.371 71.3412 130.168 70.1019 129.616 69.3681C129.616 69.3681 130.08 69.6606 130.053 70.2302C130.027 70.7998 129.371 71.3412 129.371 71.3412Z" fill="#F47458"/>
<path d="M103.369 74.3778L117.227 79.8264L124.039 82.1638L122.574 74.2418C112.239 73.6722 107.977 67.5745 105.682 67.2358C102.832 66.815 103.369 74.3778 103.369 74.3778Z" fill="#355389"/>
<path d="M74.8087 137.581C72.9613 139.895 70.9317 141.699 70.6764 141.901C70.5545 141.999 69.7809 142.168 69.6526 142.266C68.2799 145.595 69.3588 148.662 70.593 151.118C71.0074 149.279 71.4179 146.75 71.7245 146.463C72.2107 146.009 73.9196 144.019 77.2077 141.691C75.69 140.586 75.6169 139.297 74.8087 137.581Z" fill="#F7A491"/>
<path d="M70.5776 141.952C69.3832 141.899 67.0676 142.426 67.0586 142.673C67.0458 142.966 67.3716 153.249 68.8367 154.307C69.7181 154.944 70.0375 153.382 70.593 151.118C69.3589 148.663 69.8156 142.189 70.5776 141.952Z" fill="#F47458"/>
<path d="M97.3497 144.284C97.1637 146.739 96.6877 152.207 96.5748 152.724C96.5415 152.874 96.6877 153.476 96.7647 153.61C99.7475 155.223 102.776 154.413 105.246 153.401C103.556 152.847 101.318 152.132 100.982 151.918C100.643 151.703 100.23 151.03 100.329 150.059C100.531 148.052 101.201 145.974 100.748 143.75C99.5217 145.148 99.0688 143.629 97.3497 144.284Z" fill="#F7A491"/>
<path d="M96.5811 152.677C96.3874 153.844 96.3502 156.444 96.5811 156.474C96.8582 156.509 106.729 156.423 108.049 155.38C108.889 154.715 107.319 154.129 105.246 153.401C102.776 154.414 96.7145 153.442 96.5811 152.677Z" fill="#F47458"/>
<path d="M103.743 65.9106C103.743 65.9106 98.5117 63.0702 92.9952 65.4565C92.6488 65.6066 91.5994 66.996 91.6006 67.5399C91.6006 68.2019 92.677 69.9595 92.677 69.9595L102.439 69.4887L103.743 65.9106Z" fill="#13375B"/>
<path d="M151.481 42.7938L152.068 42.8092C152.373 42.8156 152.625 42.5757 152.633 42.273L152.937 30.0211C152.945 29.7184 152.705 29.4656 152.402 29.4579L151.813 29.4438C151.51 29.4361 151.258 29.676 151.25 29.9801L150.945 42.2306C150.937 42.5334 151.177 42.7861 151.481 42.7938Z" fill="#13375B"/>
<path d="M154.606 45.3764C154.582 44.2692 155.648 38.1061 155.59 37.6763C155.532 37.2376 154.048 34.1996 153.922 33.9097C153.798 33.6197 153.238 33.3041 152.987 33.7429C152.85 33.9841 153.199 34.8334 153.541 35.5544C153.192 34.9617 152.298 33.8558 151.92 33.9071C151.188 34.0059 152.004 35.9675 152.561 36.7513C153.118 37.5352 151.979 40.7604 151.979 40.7604C151.979 40.7604 151.269 41.3313 151.046 40.7976C150.824 40.2639 151.391 38.7475 150.706 39.1606C150.022 39.575 149.414 41.5327 149.754 42.0292C150.077 42.5026 151.372 45.615 151.491 45.9049H151.487L150.492 48.9621C151.718 49.5612 153.009 50.0539 154.278 50.5132C154.541 47.7741 154.606 45.3764 154.606 45.3764Z" fill="#F7A491"/>
<path d="M111.591 142.177C111.591 142.177 109.263 145.073 108.683 145.428C108.103 145.785 108.942 149.99 110.521 150.267C111.413 150.422 111.907 149.44 111.907 149.44L111.651 148.227L114.978 144.79L111.591 142.177Z" fill="#F7A491"/>
<path d="M122.599 142.277C122.599 142.277 120.657 145.447 120.128 145.875C119.598 146.302 120.965 150.366 122.568 150.437C123.471 150.478 123.837 149.439 123.837 149.439L123.429 148.27L126.291 144.435L122.599 142.277Z" fill="#F7A491"/>
<path d="M120.244 145.75C120.244 145.75 121.359 147.175 121.967 147.742C122.752 148.475 123.758 149.191 123.758 149.191C123.758 149.191 124.896 151.263 125.208 151.986C125.901 153.596 126.679 155.391 126.567 156.292C126.531 156.582 125.883 156.888 125.343 156.721C123.094 156.027 117.342 150.752 116.616 149.337C115.779 147.703 120.244 145.75 120.244 145.75Z" fill="#07345A"/>
<path d="M136.659 97.4753C136.45 96.889 136.25 96.3476 136.056 95.837C133.665 96.3604 130.963 96.9364 128.183 97.5304L127.844 107.746C127.846 106.957 129.934 124.041 129.934 124.041C129.934 124.041 125.021 135.91 121.326 142.899C122.842 144.796 123.243 145.066 125.439 146.359C131.174 139.465 138.5 127.316 138.812 125.218C138.992 124.011 139.153 104.509 136.659 97.4753Z" fill="#B75742"/>
<path d="M115.752 102.275C116.483 110.235 118.108 125.453 117.972 126.678C117.564 128.204 110.63 142.286 109.329 144.337C110.362 145.897 111.885 147.365 113.604 147.831C113.944 147.924 125.656 131.117 126.306 129.766C127.041 128.24 128.267 119.907 128.288 109.591L128.627 99.3755C123.996 100.366 119.738 101.336 115.752 102.275Z" fill="#F47458"/>
<path d="M134.883 74.6716C134.883 74.6716 147.485 68.352 148.662 66.9382C149.464 65.9773 155.562 48.0704 155.562 48.0704C155.665 46.8876 150.709 46.4501 150.557 46.6836C149.977 47.5778 143.676 61.8374 143.676 61.8374L129.321 65.9645L125.964 66.9549L134.883 74.6716Z" fill="#13375B"/>
<path d="M108.815 145.32C108.815 145.32 109.739 146.877 110.27 147.517C110.955 148.344 111.861 149.183 111.861 149.183C111.861 149.183 112.727 151.385 112.943 152.142C113.425 153.827 113.97 155.862 113.744 156.742C113.671 157.024 113.051 157.563 112.541 157.23C110.569 155.942 105.299 149.911 104.76 148.412C104.136 146.685 108.815 145.32 108.815 145.32Z" fill="#07345A"/>
<path d="M101.563 93.8693L104.969 93.9026C104.969 93.9026 104.062 100.136 104.072 102.186C104.082 104.238 106.903 121.321 106.707 123.539C106.511 125.757 100.917 149.049 100.917 149.049L96.3115 148.915C96.3115 148.915 97.0672 133.95 97.8857 130.994C98.7029 128.038 99.3598 125.343 99.3598 125.343L94.3256 107.602L101.563 93.8693Z" fill="#3C8F7C"/>
<path d="M104.937 93.2945C104.937 93.2945 99.1931 124.477 97.6626 125.6C96.1321 126.723 75.6222 143.124 75.6222 143.124L73.1 139.229C73.1 139.229 81.8212 122.265 89.5161 121.661C89.5161 121.661 89.0338 101.259 90.4514 97.972C91.869 94.6852 96.5272 90.431 96.5272 90.431L104.939 91.9474L104.937 93.2945Z" fill="#50BFA5"/>
<path d="M141.925 34.3521L142.031 36.5997L138.444 37.1706L138.195 40.4754L135.58 41.3427L136.018 42.6705L139.515 41.5107L139.751 38.3779L143.483 37.7839L143.324 34.4021L141.925 34.3521Z" fill="#FAE0B2"/>
<path d="M144.493 29.5862L142.261 29.8133L141.499 26.2519L138.194 26.1814L137.189 23.6091L135.891 24.1184L137.234 27.5592L140.367 27.6259L141.159 31.331L144.519 30.9897L144.493 29.5862Z" fill="#FAE0B2"/>
<path d="M116.165 66.9152C114.61 79.1709 114.679 90.0679 114.13 102.406C113.872 108.204 113.963 116.921 112.539 122.524C111.733 125.701 108.572 128.62 106.371 130.966C106.364 130.972 109.254 132.316 109.434 132.381C112.218 133.374 115.217 133.77 118.163 133.632C122.076 133.448 125.869 132.548 129.82 132.339C134.201 132.108 137.911 134.575 142.173 133.564C143.507 133.248 146.657 121.826 144.738 110.809C141.761 93.7319 134.156 72.4753 134.156 72.4753L131.565 65.2949L116.165 66.9152Z" fill="#13375B"/>
<path d="M124.2 50.6594C124.2 50.6594 122.09 48.8826 120.85 51.4779C120.85 51.4779 119.608 50.9545 118.922 52.2182C118.922 52.2182 116.741 51.8218 116.588 55.0419C116.588 55.0419 115.48 54.9611 115.482 56.2709C115.486 57.5795 116.239 58.3672 116.239 58.3672C116.239 58.3672 115.681 58.8958 116.093 60.0529C116.443 61.0369 117.295 61.0959 117.295 61.0959C117.295 61.0959 117.714 62.774 118.509 63.2038C119.304 63.6335 120.28 63.2718 120.28 63.2718C120.28 63.2718 120.651 64.166 121.502 63.9851C122.352 63.8055 123.323 62.8625 124.328 63.1217C125.332 63.3821 127.785 62.7073 127.785 62.7073C127.785 62.7073 130.449 61.1344 129.282 58.3556C129.282 58.3556 130.605 56.8534 129.134 55.3998C129.134 55.3998 129.792 52.7865 127.761 51.5216C125.73 50.2553 124.2 50.6594 124.2 50.6594Z" fill="#F7CC7F"/>
<path d="M125.416 64.2157L126.045 66.7136C126.045 66.7136 127.008 70.9254 125.366 71.0049C124.15 71.0639 121.113 66.4044 121.113 66.4044L121.243 60.6441L125.416 64.2157Z" fill="#F7A491"/>
<path d="M121.369 62.7405C122.43 64.8393 124.516 65.967 125.948 66.3326L125.416 64.2158L121.242 60.6442L121.369 62.7405Z" fill="#F47458"/>
<path d="M115.517 56.8725C115.628 57.8514 116.274 58.5827 116.959 58.5044C117.644 58.4261 118.108 57.5692 117.998 56.5903C117.886 55.6114 117.241 54.8802 116.556 54.9584C115.871 55.0367 115.406 55.8937 115.517 56.8725Z" fill="#F7CC7F"/>
<path d="M118.805 52.6388C118.869 53.2007 119.596 53.5804 120.429 53.4855C121.263 53.3906 121.886 52.8569 121.822 52.2937C121.758 51.7318 121.032 51.352 120.198 51.4482C119.366 51.5432 118.741 52.0756 118.805 52.6388Z" fill="#F7CC7F"/>
<path d="M122.747 53.633C124.664 52.717 126.94 53.8024 127.477 55.8294C127.712 56.7107 127.96 57.823 128.121 59.052C128.511 62.0092 127.309 65.0663 125.967 65.2203C124.626 65.373 120.7 63.8784 120.089 59.6871C119.712 57.1007 120.737 54.5939 122.747 53.633Z" fill="#F7A491"/>
<path d="M121.115 59.9078C121.19 60.5608 120.818 61.1394 120.284 61.2009C119.752 61.2612 119.259 60.7814 119.185 60.1271C119.112 59.4741 119.482 58.8943 120.016 58.834C120.548 58.7737 121.041 59.2535 121.115 59.9078Z" fill="#F7A491"/>
<path d="M128.392 51.4956C129.903 52.4385 130.578 54.055 129.901 55.1083C129.223 56.1602 127.449 56.2488 125.939 55.3058C124.428 54.3629 123.753 52.7464 124.43 51.6931C125.108 50.6412 126.882 50.5526 128.392 51.4956Z" fill="#F7CC7F"/>
<path d="M124.872 52.812C124.926 53.2905 124.393 53.7434 123.684 53.8242C122.973 53.9063 122.352 53.583 122.298 53.1058C122.245 52.6272 122.776 52.1731 123.486 52.0923C124.197 52.0114 124.818 52.3334 124.872 52.812Z" fill="#F7CC7F"/>
<path d="M129.118 56.0565C129.188 56.671 128.753 57.2265 128.146 57.2958C127.539 57.365 126.991 56.9224 126.922 56.3066C126.852 55.6921 127.286 55.1366 127.893 55.0673C128.5 54.9993 129.048 55.4419 129.118 56.0565Z" fill="#F7CC7F"/>
<path d="M122.348 68.1594C123.332 69.4731 124.658 71.0395 125.366 71.0049C126.415 70.9536 126.4 69.2165 126.254 67.9682C125.463 69.1575 123.558 68.6469 122.348 68.1594Z" fill="white"/>
<path d="M120.17 46.1589C119.713 46.1589 119.235 46.0986 118.738 45.9562C117.739 45.6701 117.03 45.1518 116.633 44.4179C116.015 43.2774 116.383 42.0407 116.398 41.9881C116.431 41.8842 116.54 41.8264 116.642 41.8585C116.746 41.8893 116.804 41.9996 116.772 42.1023C116.769 42.1138 116.438 43.2402 116.978 44.2345C117.323 44.8708 117.952 45.3237 118.846 45.5803C121.778 46.4219 124.177 44.0934 124.2 44.069C124.277 43.9933 124.401 43.9946 124.477 44.0715C124.553 44.1485 124.551 44.273 124.474 44.3487C124.387 44.4359 122.61 46.1589 120.17 46.1589Z" fill="#F7CC7F"/>
<path d="M117.52 39.6379L117.058 40.94C116.81 40.8964 116.532 40.9926 116.338 41.2146C116.055 41.5379 116.058 42.0036 116.344 42.255C116.629 42.5065 117.091 42.4487 117.373 42.1254C117.558 41.915 117.621 41.6418 117.562 41.4083L118.806 40.7707L120.871 39.7149L118.297 37.4492L117.52 39.6379Z" fill="#F7CC7F"/>
<path d="M100.749 51.478C100.454 51.8269 100.099 52.1553 99.6702 52.4427C98.8055 53.0239 97.9536 53.2317 97.139 53.0624C95.8715 52.7981 95.1671 51.7179 95.1376 51.6717C95.0786 51.5806 95.1056 51.4587 95.1967 51.401C95.2865 51.342 95.4083 51.3689 95.4661 51.46C95.4725 51.469 96.1165 52.4504 97.2224 52.6788C97.9293 52.825 98.6798 52.6364 99.4534 52.1169C101.987 50.417 101.764 47.0763 101.761 47.0429C101.752 46.9352 101.833 46.8415 101.941 46.8325C102.049 46.8248 102.142 46.9057 102.151 47.0134C102.16 47.1366 102.325 49.61 100.749 51.478Z" fill="#F7CC7F"/>
<path d="M94.0731 49.2954L94.7658 50.4886C94.5721 50.6502 94.4656 50.926 94.5092 51.2185C94.5721 51.6432 94.9288 51.9408 95.3046 51.8844C95.6818 51.8279 95.9359 51.4392 95.8717 51.0146C95.8307 50.7362 95.6639 50.5116 95.4471 50.4064L95.7665 49.0414L96.2951 46.7797L92.9082 47.2864L94.0731 49.2954Z" fill="#F7CC7F"/>
<path d="M77.8838 68.6648L73.8233 71.9722C73.8233 71.9722 82.5279 84.4857 84.0263 84.3497C85.5235 84.2125 94.4667 76.4829 94.4744 76.4765C94.146 76.76 94.2024 78.9525 94.1408 79.3797C92.9836 87.4967 92.3024 87.6237 88.192 97.1301C84.7627 105.061 87.7878 112.218 82.3457 119.712C79.6401 123.439 75.2936 125.873 71.4948 128.331C71.4948 128.331 76.1261 135.433 82.9371 135.433C89.7468 135.433 93.289 134.886 97.511 136.799C101.734 138.711 108.465 137.406 110.644 136.177C112.363 135.207 113.677 133.354 115.338 132.291C113.016 125.086 111.73 118.267 110.043 110.888C108.47 104.008 105.829 96.4386 108.04 89.4942C110.137 82.9001 112.693 74.1557 107.637 68.0003C107.637 68.0003 105.144 66.6366 99.5252 65.7154C93.9073 64.793 84.7127 75.9582 84.7127 75.9582L77.8838 68.6648Z" fill="#466EB6"/>
<path d="M93.7561 70.9743C93.8767 70.864 93.5328 70.338 93.4764 70.0493C93.8985 70.9564 94.3026 72.0161 94.5656 71.7903C94.6785 71.694 94.395 70.347 94.3847 70.1071C94.5758 70.5407 94.8363 71.7171 95.2609 71.5106C95.5162 71.3861 95.2507 70.0147 95.0762 69.2296C95.2199 69.703 95.6176 71.2129 95.7638 71.0898C96.0807 70.8217 95.3764 67.4553 95.7702 66.9344C95.9242 66.7304 95.4508 66.3315 94.8247 66.1352C94.4488 66.0184 94.0178 65.9748 93.6355 66.0903C93.0748 66.157 92.6168 66.4585 92.282 66.6573C92.0742 66.7818 91.9176 66.9485 91.8009 67.1294C91.443 67.6824 91.4366 68.3931 91.7419 68.9768C92.1858 69.8287 93.4174 71.2835 93.7561 70.9743Z" fill="#F8A492"/>
<path d="M96.6772 67.5233C96.6772 67.5233 96.5232 66.9255 96.3282 66.6189C96.1319 66.311 94.1062 65.5861 93.0504 66.252C91.9945 66.9178 95.3827 67.336 95.3827 67.336C95.3827 67.336 95.8176 67.558 96.0216 67.8736C96.2256 68.1892 95.987 68.8473 96.2936 68.9743C96.6002 69.1026 96.8645 68.2328 96.6772 67.5233Z" fill="#F8A492"/>
<path d="M129.65 69.4027C129.529 69.2924 129.873 68.7664 129.929 68.479C129.506 69.3861 129.103 70.4445 128.84 70.22C128.727 70.1237 129.011 68.7767 129.02 68.5355C128.828 68.9691 128.568 70.1455 128.143 69.939C127.889 69.8158 128.155 68.4444 128.328 67.6593C128.186 68.1327 127.788 69.6427 127.64 69.5195C127.324 69.2514 128.029 65.885 127.634 65.3641C127.48 65.1601 127.955 64.7599 128.581 64.5649C128.957 64.4468 129.387 64.4032 129.77 64.52C130.331 64.5867 130.787 64.8869 131.122 65.087C131.33 65.2115 131.487 65.3782 131.605 65.5591C131.963 66.1108 131.968 66.8215 131.664 67.4052C131.219 68.2584 129.987 69.7119 129.65 69.4027Z" fill="#F8A492"/>
<path d="M126.728 65.9528C126.728 65.9528 126.881 65.3549 127.077 65.047C127.272 64.7404 129.299 64.0143 130.354 64.6801C131.41 65.3459 128.021 65.7642 128.021 65.7642C128.021 65.7642 127.588 65.9861 127.383 66.303C127.179 66.6186 127.417 67.2754 127.111 67.4037C126.804 67.532 126.541 66.6609 126.728 65.9528Z" fill="#F8A492"/>
<path d="M102.766 62.4327C102.766 62.4327 102.353 65.7914 101.84 66.9948C101.325 68.1981 102.249 72.8205 104.793 73.7172C107.336 74.614 105.266 68.3713 105.414 67.0692C105.561 65.767 106.705 61.9734 106.705 61.9734L102.766 62.4327Z" fill="#F7A491"/>
<path d="M104.793 73.717C106.737 74.4034 105.986 70.9177 105.59 68.6546L105.582 68.6752C104.731 71.0049 102.984 69.876 101.749 68.638C101.964 70.4802 102.956 73.0691 104.793 73.717Z" fill="white"/>
<path d="M106.156 63.8847C106.444 62.8379 106.705 61.9732 106.705 61.9732L102.766 62.4325C102.766 62.4325 102.681 63.1201 102.542 63.9835C103.937 64.8123 105.204 64.616 106.156 63.8847Z" fill="#F47458"/>
<path d="M109.497 58.7851C109.207 59.4651 108.662 59.8718 108.28 59.6934C107.896 59.5164 107.822 58.8224 108.11 58.1437C108.4 57.4637 108.946 57.0583 109.329 57.2354C109.712 57.4124 109.787 58.1065 109.497 58.7851Z" fill="#F7A491"/>
<path d="M104.283 53.2946C104.283 53.2946 102.727 53.5922 101.725 55.0624C100.725 56.5313 99.9306 60.9433 103.007 63.1422C106.083 65.3411 108.62 62.5084 108.751 59.6514C108.88 56.7943 108.409 52.9559 104.283 53.2946Z" fill="#F7A491"/>
<path d="M101.551 59.033C101.755 59.7861 101.524 60.5084 101.034 60.6482C100.544 60.7881 99.9809 60.2929 99.7769 59.5398C99.5729 58.788 99.8038 58.0644 100.294 57.9246C100.784 57.7848 101.347 58.2813 101.551 59.033Z" fill="#F7A491"/>
<path d="M99.7756 57.0828C99.7756 57.0828 106.503 54.3733 108.682 55.737L107.932 52.3194C107.595 50.7876 104.164 51.4906 103.16 51.6446C101.935 51.8319 99.6447 52.3861 99.1457 53.6857C98.8057 54.5735 99.7756 57.0828 99.7756 57.0828Z" fill="#13375B"/>
<path d="M76.1072 53.5306L75.2322 55.7552C74.0134 62.0068 71.8363 65.463 66.3301 70.2406L65.9105 70.7127C65.9105 70.7127 67.2345 74.8603 71.2487 73.6595C73.9031 68.2469 77.0988 63.3231 81.0053 58.6687L82.4666 57.1292L76.1072 53.5306Z" fill="#466EB6"/>
<path d="M82.4702 57.124C82.2586 57.455 80.669 56.9175 78.9178 55.9219C77.168 54.9264 75.903 53.8488 76.1134 53.5178C76.3251 53.1855 77.9313 53.7243 79.6825 54.7199C81.4324 55.7154 82.6806 56.7918 82.4702 57.124Z" fill="#86B1F2"/>
<path d="M82.4626 57.134L82.4652 57.1276C82.4652 57.1276 78.4843 55.3521 77.6786 54.2334L77.2912 54.8748C77.744 55.2097 78.3008 55.5702 78.9179 55.9217C80.6486 56.9057 82.2227 57.4432 82.4626 57.134Z" fill="#355389"/>
<path d="M74.5368 63.6875C74.5368 63.6875 74.0301 64.0377 74.2995 64.4983C74.5689 64.9601 75.6157 65.1666 75.6157 65.1666C75.6157 65.1666 75.0448 65.9775 75.3296 66.8203C75.6157 67.6632 76.551 64.9909 76.551 64.9909L76.5202 64.2917L74.5368 63.6875Z" fill="#F79C8D"/>
<path d="M74.0122 68.534C74.3227 68.0093 74.6383 67.4885 74.9603 66.9727C74.274 65.582 73.4144 63.9386 72.7409 62.9572C72.4509 63.4665 72.1366 63.9643 71.7928 64.4569C72.4394 65.5628 73.3451 67.1793 74.0122 68.534Z" fill="#B75742"/>
<path d="M72.7806 62.8649C72.7806 62.8649 72.0955 62.8649 71.8889 62.9906C71.6811 63.1151 71.9505 63.5102 71.6811 63.718C71.4117 63.9259 70.8716 63.8643 70.9139 64.2594C70.955 64.6546 70.7369 65.0086 70.5303 65.2999C70.3225 65.5911 71.4528 67.2961 71.9711 67.3589C72.4906 67.4205 71.4835 65.237 71.5875 65.278C71.6914 65.3204 72.4688 66.7341 72.7806 66.6097C73.0923 66.4853 72.2931 64.2594 72.2931 64.2594C72.2931 64.2594 73.0705 65.6321 73.3823 65.4448C73.6927 65.2575 72.7806 62.8649 72.7806 62.8649Z" fill="#F79C8D"/>
<path d="M190.866 58.725C190.46 58.5134 190.061 58.2362 189.684 57.8796C188.925 57.1586 188.534 56.3709 188.523 55.5357C188.505 54.2374 189.41 53.3137 189.449 53.2739C189.526 53.1982 189.65 53.197 189.727 53.2739C189.805 53.3496 189.805 53.4741 189.728 53.5498C189.721 53.5587 188.898 54.4029 188.916 55.5344C188.928 56.258 189.278 56.9521 189.956 57.5961C192.18 59.7065 195.409 58.7622 195.441 58.7533C195.545 58.7212 195.656 58.7802 195.688 58.8841C195.718 58.9868 195.659 59.0971 195.555 59.1279C195.437 59.1638 193.046 59.863 190.866 58.725Z" fill="#F7CC7F"/>
<path d="M191.547 51.7164L190.528 52.6542C190.326 52.4989 190.032 52.4553 189.755 52.5618C189.352 52.7158 189.138 53.1288 189.275 53.4855C189.414 53.8409 189.851 54.0051 190.254 53.8511C190.519 53.7498 190.702 53.5381 190.757 53.3033L192.167 53.3187L194.503 53.3457L193.264 50.1397L191.547 51.7164Z" fill="#F7CC7F"/>
<path d="M200.232 60.6672C200.74 61.0726 201.624 62.3773 202.751 63.2933C203.411 63.8282 203.919 63.6923 204.76 63.7949C208.755 64.2773 207.673 65.0932 208.152 65.174C208.016 65.4871 206.772 68.1324 206.538 68.6674C206.324 69.1613 205.953 69.382 205.416 69.3076C204.59 69.1934 203.756 69.1087 202.942 68.9317C200.858 68.4801 199.698 67.4371 198.203 66.1709C197.807 65.8347 197.709 65.4152 197.915 64.9405C198.872 62.7301 200.128 60.8699 200.232 60.6672Z" fill="#466EB6"/>
<path d="M213.845 66.4098C211.553 64.4982 209.259 62.588 206.972 60.6726C206.219 60.0427 205.362 59.6758 204.388 59.5616C203.648 59.4756 196.352 58.5686 195.608 58.4762C195.335 58.4416 195.081 58.4531 194.888 58.6802C194.638 58.9791 194.678 59.3666 194.993 59.6321C197.321 61.5822 199.649 63.5309 201.979 65.4797C202.652 66.0441 203.429 66.3828 204.3 66.4893L213.347 67.5926C213.747 67.6786 214.011 67.5259 214.133 67.2052C214.244 66.9127 214.159 66.6728 213.845 66.4098Z" fill="#355389"/>
<path d="M221.065 39.6724L222.694 39.14L223.84 41.666L226.317 41.1824L227.483 42.9335L228.37 42.3434L226.81 40.0021L224.462 40.4601L223.27 37.8314L220.82 38.6319L221.065 39.6724Z" fill="#50BFA5"/>
<path d="M243.734 136.924L245.363 136.393L246.508 138.919L248.986 138.435L250.152 140.186L251.037 139.596L249.479 137.255L247.131 137.713L245.939 135.084L243.488 135.885L243.734 136.924Z" fill="#F7CC7F"/>
<path d="M130.823 7.32499C130.155 10.6323 126.931 12.7722 123.624 12.1026C120.316 11.4316 118.178 8.20763 118.847 4.90028C119.516 1.59164 122.74 -0.546979 126.047 0.122703C129.355 0.792384 131.493 4.01764 130.823 7.32499Z" fill="#F7CC7F"/>
<path d="M121.441 6.41302C121.083 8.18216 122.228 9.9051 123.996 10.2643C125.763 10.6223 127.488 9.4779 127.846 7.71004L121.441 6.41302Z" fill="#EFEFEF"/>
<path d="M40.464 97.9283C39.8225 100.077 38.9617 101.36 38.1612 101.36C37.3619 101.36 36.4998 100.077 35.8583 97.9283C35.1425 95.5305 34.7486 92.2847 34.7486 88.7875C34.7486 85.2903 35.1425 82.0432 35.8583 79.6467C36.4998 77.4978 37.3619 76.2149 38.1612 76.2149C38.9617 76.2149 39.8225 77.4978 40.464 79.6467C41.1799 82.0432 41.575 85.2903 41.575 88.7875C41.575 92.2847 41.1799 95.5305 40.464 97.9283ZM39.793 76.5498C39.2965 75.8878 38.7475 75.553 38.1612 75.553C34.8346 75.553 34.0853 85.3544 34.0853 88.7875C34.0853 92.7042 34.5203 96.0719 35.3413 98.5274C36.0982 100.789 37.1079 102.035 38.1855 102.035C39.3286 102.035 40.3729 100.603 41.1273 98.0039C43.0529 91.3713 42.3409 79.9431 39.793 76.5498Z" fill="#B75742"/>
<path d="M49.2982 94.4579C49.0968 94.9544 48.4053 95.2174 47.2981 95.2174C43.4199 95.2161 34.5947 91.9152 29.0333 86.5398C26.9126 84.4884 26.7125 83.4518 26.919 82.9425C27.1192 82.4473 27.8081 82.1856 28.9127 82.1856C30.9769 82.1856 34.2034 83.0785 37.5416 84.5731C41.3121 86.2601 44.7349 88.4911 47.1814 90.8568C49.3046 92.9082 49.5035 93.9473 49.2982 94.4579ZM49.4688 92.4476C46.8081 88.0331 34.51 81.4633 28.9088 81.4633C27.6169 81.4633 26.7741 81.8174 26.4059 82.5166C26.0608 83.1696 26.1762 83.983 26.7497 84.9349C29.4182 89.3622 41.6982 95.9513 47.2802 95.9513C48.5836 95.9513 49.4342 95.5908 49.8101 94.88C50.159 94.2206 50.0436 93.4021 49.4688 92.4476Z" fill="#B75742"/>
<path d="M43.3786 89.3558C39.4567 92.0922 34.8728 94.2129 31.1178 95.0314C30.2171 95.2264 29.4269 95.3265 28.7687 95.3265C27.7758 95.3265 27.1279 95.0994 26.8944 94.6696C26.6673 94.2514 26.77 93.6728 27.1985 92.9531C28.3287 91.0544 31.6886 88.3295 35.7593 86.0099C40.1328 83.5185 44.3831 82.0316 47.126 82.0316C48.3858 82.0316 49.0606 82.3626 49.1299 83.0143C49.2723 84.3293 47.0143 86.8182 43.3786 89.3558ZM49.5827 82.3716C49.1979 81.6609 48.3576 81.3004 47.0862 81.3004C44.546 81.3004 40.2264 82.8181 35.8119 85.2594C31.4026 87.6995 27.8912 90.5104 26.6494 92.5951C26.0823 93.5483 25.9681 94.3527 26.312 94.9865C26.6879 95.6806 27.5192 96.0321 28.7803 96.0321C34.3225 96.0321 46.5653 89.3263 49.2479 84.8207C49.8252 83.8508 49.9381 83.0272 49.5827 82.3716Z" fill="#B75742"/>
<path d="M40.2918 88.3899C40.2918 89.5599 39.3438 90.508 38.1738 90.508C37.0037 90.508 36.0557 89.5599 36.0557 88.3899C36.0557 87.2199 37.0037 86.2718 38.1738 86.2718C39.3438 86.2718 40.2918 87.2199 40.2918 88.3899Z" fill="#F47458"/>
<path d="M37.5554 78.4613C37.5554 79.3388 36.8446 80.0495 35.9671 80.0495C35.0896 80.0495 34.3789 79.3388 34.3789 78.4613C34.3789 77.5837 35.0896 76.873 35.9671 76.873C36.8446 76.873 37.5554 77.5837 37.5554 78.4613Z" fill="#F47458"/>
<path d="M42.4537 97.3034C42.4537 98.0346 41.861 98.6273 41.1297 98.6273C40.3998 98.6273 39.8071 98.0346 39.8071 97.3034C39.8071 96.5721 40.3998 95.9794 41.1297 95.9794C41.861 95.9794 42.4537 96.5721 42.4537 97.3034Z" fill="#F47458"/>
<path d="M29.6131 90.9491C29.6131 91.7047 29.0011 92.3167 28.2455 92.3167C27.4898 92.3167 26.8779 91.7047 26.8779 90.9491C26.8779 90.1934 27.4898 89.5815 28.2455 89.5815C29.0011 89.5815 29.6131 90.1934 29.6131 90.9491Z" fill="#F47458"/>
<path d="M49.8677 84.8375C49.8677 85.4597 49.3635 85.9626 48.7425 85.9626C48.1203 85.9626 47.6174 85.4597 47.6174 84.8375C47.6174 84.2166 48.1203 83.7124 48.7425 83.7124C49.3635 83.7124 49.8677 84.2166 49.8677 84.8375Z" fill="#F47458"/>
<path d="M33.2025 82.4792C33.2025 83.1002 32.6996 83.6044 32.0773 83.6044C31.4564 83.6044 30.9522 83.1002 30.9522 82.4792C30.9522 81.8583 31.4564 81.3541 32.0773 81.3541C32.6996 81.3541 33.2025 81.8583 33.2025 82.4792Z" fill="#F47458"/>
<path d="M266.263 106.766L260.956 108.502L260.657 107.587L265.964 105.852L266.263 106.766Z" fill="#9BC1F9"/>
<path d="M254.464 100.92L253.618 100.464L256.404 95.2853L257.251 95.7407L254.464 100.92Z" fill="#9BC1F9"/>
<path d="M261.6 122.608L257.613 117.942L258.344 117.317L262.331 121.983L261.6 122.608Z" fill="#9BC1F9"/>
<path d="M258.299 117.706L248.64 120.317L241.345 114.255L241.96 113.516L248.871 119.258L257.519 116.921L259.99 108.021L253.609 101.191L254.31 100.534L261.06 107.758L258.299 117.706Z" fill="#9BC1F9"/>
<path d="M243.666 113.088C244.093 114.298 243.459 115.625 242.25 116.053C241.04 116.482 239.712 115.848 239.285 114.638C238.856 113.427 239.49 112.101 240.7 111.672C241.91 111.244 243.237 111.877 243.666 113.088Z" fill="#96D9C9"/>
<path d="M250.977 119.34C251.405 120.551 250.771 121.879 249.561 122.306C248.351 122.735 247.023 122.101 246.596 120.89C246.168 119.68 246.801 118.354 248.011 117.925C249.221 117.497 250.549 118.13 250.977 119.34Z" fill="#96D9C9"/>
<path d="M260.133 116.555C260.562 117.765 259.928 119.092 258.718 119.521C257.509 119.948 256.181 119.314 255.752 118.105C255.324 116.895 255.959 115.567 257.169 115.14C258.378 114.711 259.706 115.345 260.133 116.555Z" fill="#96D9C9"/>
<path d="M264.822 122.12C265.25 123.331 264.616 124.658 263.406 125.086C262.196 125.515 260.869 124.881 260.441 123.67C260.013 122.46 260.647 121.134 261.856 120.705C263.066 120.277 264.394 120.91 264.822 122.12Z" fill="#96D9C9"/>
<path d="M269.811 105.228C270.239 106.438 269.604 107.766 268.395 108.193C267.184 108.621 265.857 107.988 265.429 106.778C265.001 105.568 265.635 104.24 266.844 103.812C268.056 103.385 269.383 104.018 269.811 105.228Z" fill="#96D9C9"/>
<path d="M259.922 93.8525C260.35 95.0623 259.716 96.3901 258.506 96.8174C257.297 97.2458 255.969 96.6121 255.54 95.4023C255.113 94.1925 255.747 92.8647 256.957 92.4362C258.167 92.009 259.494 92.6427 259.922 93.8525Z" fill="#96D9C9"/>
<path d="M263.102 107.006C263.529 108.216 262.895 109.544 261.686 109.971C260.476 110.4 259.148 109.766 258.721 108.556C258.292 107.346 258.926 106.018 260.136 105.59C261.346 105.163 262.673 105.796 263.102 107.006Z" fill="#96D9C9"/>
<path d="M256.231 99.9168C256.659 101.127 256.025 102.454 254.816 102.883C253.606 103.31 252.278 102.676 251.85 101.467C251.422 100.257 252.056 98.9289 253.266 98.5017C254.476 98.0732 255.804 98.707 256.231 99.9168Z" fill="#96D9C9"/>
<path d="M255.166 84.2076L252.048 83.5585L252.71 81.0401L253.641 81.2839L253.235 82.8234L255.362 83.266L255.166 84.2076Z" fill="#F47458"/>
<path d="M44.378 112.053L43.6762 113.999L40.4202 113.217L39.0424 115.937L36.5099 115.748L36.415 117.031L39.8018 117.282L41.1078 114.704L44.496 115.52L45.5519 112.591L44.378 112.053Z" fill="#50BFA5"/>
<path d="M41.3979 57.9604L43.1029 58.1374L43.1208 60.9111L45.5814 61.4768L45.9355 63.55L46.9849 63.3717L46.5116 60.598L44.1805 60.0618L44.16 57.1765L41.5954 56.9109L41.3979 57.9604Z" fill="#9BC1F9"/>
</svg>
