<svg width="32" height="30" viewBox="0 0 32 30" fill="none" xmlns="http://www.w3.org/2000/svg">
<path d="M28.8 6.3158H22.4V3.15791C22.4015 2.7428 22.3197 2.3315 22.1594 1.94771C21.9991 1.56392 21.7635 1.21522 21.466 0.921687C21.1686 0.628159 20.8152 0.395606 20.4263 0.237425C20.0374 0.0792431 19.6206 -0.00144108 19.2 1.94803e-05H12.8C12.3794 -0.00144108 11.9626 0.0792431 11.5737 0.237425C11.1848 0.395606 10.8314 0.628159 10.534 0.921687C10.2365 1.21522 10.0009 1.56392 9.84058 1.94771C9.68029 2.3315 9.59853 2.7428 9.60001 3.15791V6.3158H3.20002C2.78024 6.31475 2.36441 6.39582 1.97658 6.55434C1.58876 6.71286 1.23662 6.94568 0.940535 7.23934C0.644451 7.533 0.410296 7.88166 0.251607 8.26518C0.0929186 8.64869 0.0128462 9.05945 0.0160197 9.47369L1.97401e-05 26.8421C-0.0014603 27.2572 0.0802996 27.6685 0.24059 28.0523C0.400881 28.4361 0.636534 28.7848 0.933977 29.0783C1.23142 29.3718 1.58477 29.6044 1.97368 29.7626C2.36259 29.9208 2.77937 30.0014 3.20002 30H28.8C29.2206 30.0014 29.6374 29.9208 30.0263 29.7626C30.4152 29.6044 30.7686 29.3718 31.066 29.0783C31.3635 28.7848 31.5991 28.4361 31.7594 28.0523C31.9197 27.6685 32.0015 27.2572 32 26.8421V9.47369C32.0015 9.05858 31.9197 8.64729 31.7594 8.26349C31.5991 7.8797 31.3635 7.531 31.066 7.23747C30.7686 6.94394 30.4152 6.71139 30.0263 6.55321C29.6374 6.39502 29.2206 6.31434 28.8 6.3158ZM19.2 6.3158H12.8V3.15791H19.2V6.3158Z" fill="#070606"/>
</svg>
