<svg width="24" height="18" viewBox="0 0 24 18" fill="none" xmlns="http://www.w3.org/2000/svg">
<path fill-rule="evenodd" clip-rule="evenodd" d="M0 2C0 0.895431 0.895431 0 2 0H22C23.1046 0 24 0.895431 24 2C24 3.10457 23.1046 4 22 4H2C0.89543 4 0 3.10457 0 2ZM0 9C0 7.89543 0.895431 7 2 7H22C23.1046 7 24 7.89543 24 9C24 10.1046 23.1046 11 22 11H2C0.89543 11 0 10.1046 0 9ZM2 14C0.895431 14 0 14.8954 0 16C0 17.1046 0.89543 18 2 18H22C23.1046 18 24 17.1046 24 16C24 14.8954 23.1046 14 22 14H2Z" fill="#7A62A3"/>
</svg>
