<svg width="26" height="24" viewBox="0 0 26 24" fill="none" xmlns="http://www.w3.org/2000/svg">
<path d="M7 4.6V5.6C7.35567 5.6 7.68457 5.41109 7.86378 5.10387L7 4.6ZM9.1 1V0C8.74433 0 8.41543 0.188911 8.23622 0.496129L9.1 1ZM16.9 1L17.7638 0.496129C17.5846 0.188911 17.2557 0 16.9 0V1ZM19 4.6L18.1362 5.10387C18.3154 5.41109 18.6443 5.6 19 5.6V4.6ZM2 19.9V7.6H0V19.9H2ZM4 5.6H7V3.6H4V5.6ZM7.86378 5.10387L9.96378 1.50387L8.23622 0.496129L6.13622 4.09613L7.86378 5.10387ZM9.1 2H16.9V0H9.1V2ZM16.0362 1.50387L18.1362 5.10387L19.8638 4.09613L17.7638 0.496129L16.0362 1.50387ZM19 5.6H22V3.6H19V5.6ZM24 7.6V19.9H26V7.6H24ZM24 19.9C24 21.0046 23.1046 21.9 22 21.9V23.9C24.2091 23.9 26 22.1091 26 19.9H24ZM22 5.6C23.1046 5.6 24 6.49543 24 7.6H26C26 5.39086 24.2091 3.6 22 3.6V5.6ZM2 7.6C2 6.49543 2.89543 5.6 4 5.6V3.6C1.79086 3.6 0 5.39086 0 7.6H2ZM4 21.9C2.89543 21.9 2 21.0046 2 19.9H0C0 22.1091 1.79086 23.9 4 23.9V21.9ZM16.5 13C16.5 14.933 14.933 16.5 13 16.5V18.5C16.0376 18.5 18.5 16.0376 18.5 13H16.5ZM13 16.5C11.067 16.5 9.5 14.933 9.5 13H7.5C7.5 16.0376 9.96243 18.5 13 18.5V16.5ZM9.5 13C9.5 11.067 11.067 9.5 13 9.5V7.5C9.96243 7.5 7.5 9.96243 7.5 13H9.5ZM13 9.5C14.933 9.5 16.5 11.067 16.5 13H18.5C18.5 9.96243 16.0376 7.5 13 7.5V9.5ZM22 21.9H4V23.9H22V21.9Z" fill="white"/>
</svg>
