<svg width="17" height="14" viewBox="0 0 17 14" fill="none" xmlns="http://www.w3.org/2000/svg">
<path opacity="0.8" fill-rule="evenodd" clip-rule="evenodd" d="M0.31782 0.307538C0.741581 -0.102513 1.42863 -0.102513 1.85239 0.307538L8.00133 6.25754C8.42509 6.66759 8.42509 7.33241 8.00133 7.74246L1.85239 13.6925C1.42863 14.1025 0.741581 14.1025 0.31782 13.6925C-0.10594 13.2824 -0.10594 12.6176 0.31782 12.2075L5.69947 7L0.31782 1.79246C-0.10594 1.38241 -0.10594 0.717588 0.31782 0.307538ZM8.99867 0.307538C9.42243 -0.102513 10.1095 -0.102513 10.5332 0.307538L16.6822 6.25754C17.1059 6.66759 17.1059 7.33241 16.6822 7.74246L10.5332 13.6925C10.1095 14.1025 9.42243 14.1025 8.99867 13.6925C8.57491 13.2824 8.57491 12.6176 8.99867 12.2075L14.3803 7L8.99867 1.79246C8.57491 1.38241 8.57491 0.717588 8.99867 0.307538Z" fill="black"/>
</svg>
