<svg width="23" height="20" viewBox="0 0 23 20" fill="none" xmlns="http://www.w3.org/2000/svg">
<path opacity="0.5" d="M14.7381 0.000974655C15.024 0.000974655 15.2983 0.118181 15.5005 0.326574C15.7027 0.534969 15.8163 0.817493 15.8163 1.11221L15.8163 5.55616C15.8163 5.85097 15.7027 6.13373 15.5006 6.34228C15.2984 6.55084 15.0241 6.66811 14.7381 6.66837C14.5964 6.66837 14.4561 6.63953 14.3252 6.58362C14.1943 6.52772 14.0754 6.44582 13.9753 6.34253C13.8752 6.23923 13.7958 6.11655 13.7416 5.98161C13.6875 5.84668 13.6597 5.70218 13.6598 5.55616V2.22344L2.15549 2.22344L2.15549 17.7785L13.655 17.7785V14.4448C13.6549 14.2988 13.6827 14.1545 13.7368 14.0196C13.791 13.8847 13.8704 13.7621 13.9705 13.6589C14.0707 13.5557 14.1896 13.4739 14.3205 13.4181C14.4513 13.3623 14.5916 13.3337 14.7332 13.3338C15.0192 13.3338 15.2934 13.4508 15.4957 13.6592C15.6979 13.8676 15.8115 14.1501 15.8115 14.4448V18.8888C15.8112 19.1834 15.6975 19.4658 15.4954 19.6742C15.2932 19.8825 15.0191 19.9997 14.7332 20L1.07823 20C0.792265 20 0.518011 19.883 0.315804 19.6746C0.113596 19.4662 0 19.1835 0 18.8888L0 1.11123C0 0.816519 0.113596 0.533995 0.315804 0.325602C0.518011 0.117207 0.792265 0 1.07823 0L14.7381 0.000974655ZM19.4536 5.88639L22.6883 9.22009C22.7125 9.24503 22.7358 9.27085 22.7571 9.29778C22.7783 9.32471 22.7764 9.32575 22.7861 9.33772C22.7958 9.34969 22.8093 9.36874 22.82 9.38569C22.8306 9.40265 22.8393 9.41744 22.848 9.4344C22.8567 9.45136 22.8655 9.46449 22.8742 9.47945C22.8829 9.49441 22.8897 9.51315 22.8984 9.53011C22.9071 9.54706 22.9139 9.5621 22.9197 9.57906C22.9255 9.59601 22.9313 9.61202 22.9371 9.62898C22.9429 9.64594 22.9497 9.66387 22.9545 9.68183C22.9596 9.69852 22.9638 9.71553 22.9671 9.73272C22.9671 9.75068 22.9768 9.76857 22.9806 9.78752C22.9845 9.80647 22.9864 9.8265 22.9893 9.84645C22.9922 9.8664 22.9952 9.87944 22.9952 9.8954C22.9985 9.93154 23.0001 9.96772 23 10.004C23.0002 10.04 22.9986 10.0759 22.9952 10.1117C22.9952 10.1296 22.9951 10.1446 22.9893 10.1626C22.9835 10.1805 22.9845 10.2006 22.9806 10.2205C22.9768 10.2405 22.9719 10.2573 22.9671 10.2763C22.9637 10.2931 22.9595 10.3098 22.9545 10.3262C22.9487 10.3442 22.9429 10.3621 22.9371 10.38C22.9313 10.398 22.9255 10.413 22.9197 10.429C22.9139 10.4449 22.9051 10.4619 22.8974 10.4789C22.8896 10.4959 22.8829 10.5119 22.8742 10.5288C22.8655 10.5458 22.8567 10.5596 22.848 10.5746C22.8393 10.5896 22.8306 10.6066 22.8209 10.6226C22.8098 10.6395 22.7978 10.6556 22.7851 10.6713L22.758 10.7103C22.7358 10.739 22.7119 10.7664 22.6864 10.7921L19.4527 14.1258C19.2504 14.3338 18.9762 14.4507 18.6905 14.4507C18.4047 14.4507 18.1306 14.3338 17.9282 14.1258C17.7261 13.9172 17.6126 13.6344 17.6126 13.3397C17.6126 13.0449 17.7261 12.7621 17.9282 12.5535L19.322 11.1172L6.83621 11.1172C6.55025 11.1172 6.276 11.0002 6.07379 10.7918C5.87158 10.5834 5.75798 10.3007 5.75798 10.006C5.75798 9.71125 5.87158 9.42873 6.07379 9.22034C6.276 9.01194 6.55025 8.89473 6.83621 8.89473L19.322 8.89473L17.9282 7.45839C17.7264 7.24988 17.6131 6.96728 17.6131 6.67276C17.6131 6.37823 17.7264 6.09587 17.9282 5.88737C18.0282 5.78423 18.147 5.70231 18.2777 5.64651C18.4084 5.59072 18.5485 5.5622 18.69 5.56225C18.9747 5.56029 19.2486 5.67456 19.4517 5.8803L19.4536 5.88639Z" fill="black"/>
</svg>
