<svg width="22" height="22" viewBox="0 0 22 22" fill="none" xmlns="http://www.w3.org/2000/svg">
<path d="M16.5 16.5C19.5376 13.4624 19.5376 8.53757 16.5 5.5C13.4624 2.46243 8.53757 2.46243 5.5 5.5C2.46243 8.53757 2.46243 13.4624 5.5 16.5C8.53757 19.5376 13.4624 19.5376 16.5 16.5Z" fill="#E9B522"/>
<path d="M11.0001 20.3032C5.87026 20.3032 1.69678 16.1298 1.69678 10.9999C1.69678 5.87003 5.87026 1.69659 11.0001 1.69659C16.13 1.69659 20.3035 5.87003 20.3035 10.9999C20.3035 16.1298 16.13 20.3032 11.0001 20.3032ZM11.0001 3.22169C6.71121 3.22169 3.22188 6.71098 3.22188 10.9999C3.22188 15.2888 6.71121 18.7782 11.0001 18.7782C15.289 18.7782 18.7784 15.2889 18.7784 10.9999C18.7784 6.71094 15.289 3.22169 11.0001 3.22169Z" fill="#F7DE61"/>
<path d="M13.4859 14.3998C13.0788 14.7997 12.5332 15.0501 11.8489 15.1508V16.3504H10.7467V15.1724C10.264 15.1364 9.81557 15.0429 9.40143 14.8915C8.98707 14.7403 8.6251 14.535 8.31543 14.2757L8.79092 13.26C9.41758 13.7499 10.0947 14.02 10.8223 14.0703V11.8228C10.3396 11.7004 9.93254 11.5653 9.60127 11.4177C9.26991 11.2701 8.99248 11.0501 8.76927 10.7585C8.54597 10.4668 8.43436 10.0868 8.43436 9.61851C8.43436 9.22948 8.53155 8.87474 8.72602 8.55411C8.92053 8.23366 9.19236 7.96715 9.54187 7.75458C9.8912 7.5422 10.2929 7.40703 10.7467 7.34931V6.14993H11.8488V7.33849C12.2665 7.38902 12.6593 7.48989 13.0266 7.64106C13.394 7.79247 13.7036 7.98334 13.9559 8.21379L13.4805 9.22948C12.9546 8.79733 12.3854 8.53801 11.7732 8.45141V10.7962C12.2557 10.919 12.6556 11.0501 12.9726 11.1907C13.2896 11.3311 13.5561 11.5418 13.7722 11.8228C13.9883 12.1037 14.0964 12.4711 14.0964 12.9249C14.0965 13.5084 13.8928 14.0001 13.4859 14.3998ZM10.0876 10.1533C10.2605 10.3083 10.5054 10.4397 10.8224 10.5478V8.46224C10.5126 8.52719 10.2695 8.65335 10.093 8.84045C9.91639 9.02792 9.82835 9.26195 9.82835 9.54288C9.8283 9.79515 9.91476 9.99849 10.0876 10.1533ZM12.4648 13.6544C12.6232 13.4779 12.7026 13.2491 12.7026 12.9682C12.7026 12.745 12.6231 12.5649 12.4648 12.428C12.3063 12.2912 12.0758 12.1759 11.7733 12.082V14.0164C12.0758 13.9514 12.3063 13.8309 12.4648 13.6544Z" fill="#CE9811"/>
<path d="M2.26409 10.9999C2.26409 5.96497 6.28462 1.85182 11.2838 1.70131C11.1895 1.69846 11.095 1.69659 11.0001 1.69659C5.87026 1.69659 1.69678 5.87003 1.69678 10.9999C1.69678 16.1298 5.87026 20.3032 11.0001 20.3032C11.0951 20.3032 11.1896 20.3014 11.2838 20.2985C6.28462 20.148 2.26409 16.0348 2.26409 10.9999Z" fill="#FFF2BD"/>
<path d="M11.0003 3.22165C10.9172 3.22165 10.8345 3.22342 10.752 3.22603C14.9264 3.35766 18.2818 6.79404 18.2818 10.9999C18.2818 15.2057 14.9264 18.6421 10.752 18.7738C10.8344 18.7764 10.9172 18.7781 11.0003 18.7781C15.2892 18.7781 18.7786 15.2888 18.7786 10.9999C18.7786 6.71089 15.2892 3.22165 11.0003 3.22165Z" fill="#CE9811"/>
<path d="M9.88197 9.90324C10.0548 10.0582 10.2997 10.1896 10.6167 10.2977V8.21213C10.3069 8.27708 10.0637 8.40324 9.88738 8.59034C9.71073 8.77781 9.62269 9.01184 9.62269 9.29282C9.62264 9.54509 9.7091 9.74843 9.88197 9.90324ZM12.2592 13.4043C12.4175 13.2279 12.4969 12.9991 12.4969 12.7181C12.4969 12.4949 12.4175 12.3149 12.2592 12.1779C12.1007 12.0411 11.8701 11.9258 11.5676 11.832V13.7663C11.8701 13.7014 12.1006 13.5808 12.2592 13.4043ZM13.2803 14.1497C12.8732 14.5496 12.3275 14.8001 11.6432 14.9007V16.1003H10.5411V14.9224C10.0584 14.8863 9.60995 14.7928 9.19582 14.6415C8.78145 14.4902 8.41948 14.2849 8.10986 14.0256L8.5853 13.0099C9.21196 13.4998 9.88906 13.7699 10.6167 13.8203V11.5727C10.134 11.4504 9.72692 11.3152 9.39565 11.1676C9.06429 11.02 8.78687 10.8 8.56366 10.5085C8.34035 10.2167 8.22875 9.8367 8.22875 9.36845C8.22875 8.97942 8.32589 8.62468 8.5204 8.30405C8.71492 7.9836 8.98675 7.71709 9.33626 7.50452C9.68559 7.29214 10.0873 7.15702 10.5411 7.09925V5.89987H11.6432V7.08843C12.0609 7.13896 12.4536 7.23983 12.821 7.39105C13.1884 7.54245 13.498 7.73333 13.7503 7.96377L13.2749 8.97946C12.749 8.54732 12.1798 8.288 11.5676 8.2014V10.5462C12.0501 10.6689 12.45 10.8001 12.767 10.9407C13.0839 11.0811 13.3505 11.2918 13.5666 11.5727C13.7827 11.8537 13.8908 12.221 13.8908 12.6749C13.8908 13.2584 13.6872 13.7501 13.2803 14.1497Z" fill="#F7DE61"/>
</svg>
